/* XPM */
static char *result[] = {
/* columns rows colors chars-per-pixel */
"64 64 37 1 ",
"  c #733729",
". c #763A29",
"X c #9D582A",
"o c #A85E2A",
"O c #A85F2A",
"+ c #BE702A",
"@ c #BF702A",
"# c #A7683F",
"$ c #D94929",
"% c #D94A2A",
"& c #C1732C",
"* c #C1742C",
"= c #E16947",
"- c #E16B47",
"; c #E16B48",
": c #F29A2E",
"> c #E6825D",
", c #E6835D",
"< c #E7845F",
"1 c #F3A545",
"2 c #F3A546",
"3 c #EA956E",
"4 c #ED9D77",
"5 c #ED9E77",
"6 c #F6B669",
"7 c #EDA078",
"8 c #F7BF79",
"9 c #F7C07B",
"0 c #F3B98F",
"q c #F3BB91",
"w c #F8C98D",
"e c #F8C88E",
"r c #F8C98E",
"t c #F7CCA1",
"y c #F9D2A0",
"u c #FAD6AA",
"i c #FAD7AB",
/* pixels */
"::::::::::::::::::::::::::::::::::::::::::::::::::::::::::::::::",
"::::::::::::::::::::::::::::::::::::::::::::::::::::::::::::::::",
"::::::::::::::::::::::::2666666666666661::::::::::::::::::::::::",
"::::::::::::::::::::::::yiiiiiiiiiiiiiiy::::::::::::::::::::::::",
"::::::::::::::::::::::::iiittiiiii737iii::::::::::::::::::::::::",
"::::::::::::::::::::::::iii>,iiiii4$5iii::::::::::::::::::::::::",
"::::::::::::::::::::::::iiq%%0iiiiu<uiii::::::::::::::::::::::::",
"::::::::::::::::::::::::uiiiiiiiiiiiiiiu::::::::::::::::::::::::",
"::::::::::::::::::::::::9uiiiiiiiiiiiiu8::::::::::::::::::::::::",
"::::::::::::::::::::::::::::::::::::::::::::::::::::::::::::::::",
"::::::::::::::::::::::::::::::::::::::::::::::::::::::::::::::::",
"::::::::::::::::::::::::::::::::::::::::::::::::::::::::::::::::",
"::::::::::::::::::::::::::::::::::::::::::::::::::::::::::::::::",
":::::::::::::&.                                  .*:::::::::::::",
":::::::::::::X                                    X:::::::::::::",
":::::::::::::X                                    X:::::::::::::",
":::::::::::::X  O@@@@@@@@@@@@@@##@@@@@@@@@@@@@@o  X:::::::::::::",
":::::::::::::X  +@@@@@@@@@@@@@@##@@@@@@@@@@@@@@+  X:::::::::::::",
":::::::::::::X  @@@@@@@@@@@@@@@##@@@@@@@@@@@@@@@  X:::::::::::::",
":::::::::::::X  @@@@@@@@@@@@@@@##@@@@@@@@@@@@@@@  X:::::::::::::",
":::::::::::::X  @@@@@@@@@@@@@@@##@@@@@@@@@@@@@@@  X:::::::::::::",
":::::::::::::X  @@@@@@@@@@@@@@@##@@@@@@@@@@@@@@@  X:::::::::::::",
":::::::::::::X  @@@@@@@@@@@@@@@##@@@@@@@@@@@@@@@  X:::::::::::::",
":::::::::::::X  @@@@@@@@@@@@@@@##@@@@@@@@@@@@@@@  X:::::::::::::",
":::::::::::::X  @@@@@@@@@@@@@@@##@@@@@@@@@@@@@@@  X:::::::::::::",
":::::::::::::X  @@@@@@@@@@@@@@@##@@@@@@@@@@@@@@@  X:::::::::::::",
":::::::::::::X  @@@@@@@@@@@@@@@##@@@@@@@@@@@@@@@  X:::::::::::::",
":::::::::::::X  @@@@@@@@@@@@@@@##@@@@@@@@@@@@@@@  X:::::::::::::",
":::::::::::::X  @@@@@@@@@@@@@@@##@@@@@@@@@@@@@@@  X:::::::::::::",
":::::::::::::X  @@@@@@@@@@@@@@@##@@@@@@@@@@@@@@@  X:::::::::::::",
":::::::::::::X  @@@@@@@@@@@@@@@##@@@@@@@@@@@@@@@  X:::::::::::::",
":::::::::::::X  @@@@@@@@@@@@@@@##@@@@@@@@@@@@@@@  X:::::::::::::",
":::::::::::::X  @@@@@@@@@@@@@@@##@@@@@@@@@@@@@@@  X:::::::::::::",
":::::::::::::X  @@@@@@@@@@@@@@@##@@@@@@@@@@@@@@@  X::::riiiie:::",
":::::::::::::X  @@@@@@@@@@@@@@@##@@@@@@@@@@@@@@@  X::::iiiiii:::",
":::::::::::::X  @@@@@@@@@@@@@@@##@@@@@@@@@@@@@@@  X::::iiiiii:::",
":::::::::::::X  @@@@@@@@@@@@@@@##@@@@@@@@@@@@@@@  X::::iiiiii:::",
":::::::::::::X  @@@@@@@@@@@@@@@##@@@@@@@@@@@@@@@  X::::ii=-ii:::",
":::::::::::::X  @@@@@@@@@@@@@@@##@@@@@@@@@@@@@@@  X::::ii-;ii:::",
":::::::::::::X  @@@@@@@@@@@@@@@##@@@@@@@@@@@@@@@  X::::iiiiii:::",
":::::::::::::X  @@@@@@@@@@@@@@@##@@@@@@@@@@@@@@@  X::::iiiiii:::",
":::::::::::::X  @@@@@@@@@@@@@@@##@@@@@@@@@@@@@@@  X::::iiiiii:::",
":::::::::::::X  @@@@@@@@@@@@@@@##@@@@@@@@@@@@@@@  X::::eiiiiw:::",
":::::::::::::X  @@@@@@@@@@@@@@@##@@@@@@@@@@@@@@@  X:::::::::::::",
":::::::::::::X  @@@@@@@@@@@@@@@##@@@@@@@@@@@@@@@  X:::::::::::::",
":::::::::::::X  @@@@@@@@@@@@@@@##@@@@@@@@@@@@@@@  X:::::::::::::",
":::::::::::::X  @@@@@@@@@@@@@@@##@@@@@@@@@@@@@@@  X:::::::::::::",
":::::::::::::X  @@@@@@@@@@@@@@@##@@@@@@@@@@@@@@@  X:::::::::::::",
":::::::::::::X  @@@@@@@@@@@@@@@##@@@@@@@@@@@@@@@  X:::::::::::::",
":::::::::::::X  @@@@@@@@@@@@@@@##@@@@@@@@@@@@@@@  X:::::::::::::",
":::::::::::::X  @@@@@@@@@@@@@@@##@@@@@@@@@@@@@@@  X:::::::::::::",
":::::::::::::X  @@@@@@@@@@@@@@@##@@@@@@@@@@@@@@@  X:::::::::::::",
":::::::::::::X  @@@@@@@@@@@@@@@##@@@@@@@@@@@@@@@  X:::::::::::::",
":::::::::::::X  @@@@@@@@@@@@@@@##@@@@@@@@@@@@@@@  X:::::::::::::",
":::::::::::::X  @@@@@@@@@@@@@@@##@@@@@@@@@@@@@@@  X:::::::::::::",
":::::::::::::X  @@@@@@@@@@@@@@@##@@@@@@@@@@@@@@@  X:::::::::::::",
":::::::::::::X  @@@@@@@@@@@@@@@##@@@@@@@@@@@@@@@  X:::::::::::::",
":::::::::::::X  @@@@@@@@@@@@@@@##@@@@@@@@@@@@@@@  X:::::::::::::",
":::::::::::::X  @@@@@@@@@@@@@@@##@@@@@@@@@@@@@@@  X:::::::::::::",
":::::::::::::X  @@@@@@@@@@@@@@@##@@@@@@@@@@@@@@@  X:::::::::::::",
":::::::::::::X  @@@@@@@@@@@@@@@##@@@@@@@@@@@@@@@  X:::::::::::::",
":::::::::::::X  @@@@@@@@@@@@@@@##@@@@@@@@@@@@@@@  X:::::::::::::",
":::::::::::::X  @@@@@@@@@@@@@@@##@@@@@@@@@@@@@@@  X:::::::::::::",
":::::::::::::X  @@@@@@@@@@@@@@@##@@@@@@@@@@@@@@@  X:::::::::::::"
};
