/* XPM */
static char *result[] = {
/* columns rows colors chars-per-pixel */
"64 64 73 1 ",
"  c #455A64",
". c #495D67",
"X c #495F69",
"o c #4D616B",
"O c #51646E",
"+ c #546973",
"@ c #5A6B74",
"# c #556E7B",
"$ c #64757C",
"% c #5A7582",
"& c #5F7D8A",
"* c #607882",
"= c #6C7C82",
"- c #607D8B",
"; c #717F86",
": c #64818E",
"> c #76838A",
", c #79868D",
"< c #7B888E",
"1 c #678390",
"2 c #6B8592",
"3 c #6E8895",
"4 c #738B97",
"5 c #758D99",
"6 c #788F9B",
"7 c #7C939D",
"8 c #7F95A0",
"9 c #828D93",
"0 c #879196",
"q c #8C969B",
"w c #8E989D",
"e c #919A9E",
"r c #8196A1",
"t c #8499A3",
"y c #8A9DA7",
"u c #8B9EA8",
"i c #939CA0",
"p c #8EA0A9",
"a c #9AA2A6",
"s c #94A5AD",
"d c #9EA5A8",
"f c #9CACB3",
"g c #A2A9AC",
"h c #A0AFB6",
"j c #A9AEB0",
"k c #A2B0B7",
"l c #AEB2B4",
"z c #A5B3B9",
"x c #A8B4BB",
"c c #ACB8BE",
"v c #B3B6B7",
"b c #B4B7B9",
"n c #B6B9BA",
"m c #BDBDBD",
"M c #B4BEC2",
"N c #BFBFC0",
"B c #B7C1C5",
"V c #BCC1C3",
"C c #BEC5C9",
"Z c #C3C3C3",
"A c #C0C7CB",
"S c #C2C9CC",
"D c #CCCCCD",
"F c #C7CDD0",
"G c #C9CFD1",
"H c #CCD1D3",
"J c #D2D4D5",
"K c #D3D6D8",
"L c #D6D8D9",
"P c #DDDDDE",
"I c #DFDFE0",
"U c gray88",
"Y c None",
/* pixels */
"YYYYYYYYYYYYYYYYYYYYYYYYYYYYYYYYYYYYYYYYYYYYYYYYYYYYYYYYYYYYYYYY",
"YYYYYYYYYYYYYYYYYYYYYYYYYYYYYYYYYYYYYYYYYYYYYYYYYYYYYYYYYYYYYYYY",
"YYYKJy----------------------:5xJJx5----------------#      qNZgYY",
"YYKUUPu-------------------:uCIIUUUUSp:-----------&&+     eNmmNYY",
"YYJUUUUu----------------4xLUUUUUUUUUULx5----------&O    emmmmmYY",
"YYyPUUUPu------------:pAPUUUUUUUUUUUUUUICs:-&-----&o   emmmmmqYY",
"YY-uPUUUPu--&------5xLUUUUUUUIIUUUIIUUUUUULx5------   emmmmme YY",
"YY--yPUUUIp-----:yCUUPUUUUULM5UUUU4zLUUUUUUUUSs1--%  tmmmmNi  YY",
"YY&-&uPIUUIp--4zLUUUUUIUIFs1--UUUU--:uCIUIIUUUULx7# wmmmmme.  YY",
"YY----uIUUUPkSUIUUUUUULx5&&---UUUU-----5xLUUUUUUUUmjmmmmNe    YY",
"YY-----uPUUUUUUUUUUPSs-------5UUUU5&----&:pSIIUUUUmmmmmme     YY",
"YY------uPUUUUUUULc6-----&-tBIUUUUISu--&&--&4zLIULmmmmmi.     YY",
"YY------&kUUUUUJu:------3fKIUUUUUUUUUJf3------:pJDmmmmj       YY",
"YY-------SUUUUUPu&----7MIIUUUUUUUUUUUUUPMt-----uPZmmmmm       YY",
"YY------5IUUUUUUIs-:sGUUUUUUUUUUUUUUUUUUUUHf2-uPLmmmmmm=      YY",
"YY-----&xIUUJPUUIIMPIIUUUUULc6UUUU5cPUUUUUUULMIUDmmNmmmv      YY",
"YY-----:LUUUpuPUUUUUUUUUIHf2&&UUUU--1sHIUUUUUUUUZNeammmmo     YY",
"YY-----uUUUL--yIUUUUUUIMt-----UUUU--&&&8BPUUUUULNe ommmme     YY",
"YY--&--SUUIx---BUUUUIA2-&&&&--UUUU----&&-3AUUUUZn   vmmmmo    YY",
"YY----5IIII4--2LUUUUUIu-&&&&3fUUUUf2--&&-yPUUULmmO  $mmmm$   .YY",
"YY----xUUUS&&-fUUUUUUUPs&&6BIUUUUUUIBq&&uPUUIIDmma   mmmmv    YY",
"YY----LUUUs&-&GUUUAPUUPPxHUUIUUUUUUUUUGzPUUUPCmmmm   emmmNo   YY",
"YY---pUUUL---rUUUP3yPUUUUUUUUUUUUUUUUUUUUUUIu=mmmm<  oNmmmi   YY",
"YY---SUUUx---MUUUM--uPUUUUUUUGUUUUHUUUUUUUPu% mmmmn   vmmmm   YY",
"YY--4IUUI5--3PUUUr---zUUUUUG7:IUUU-tHUUUUUl-o 0mmmN@  $Nmmm=  YY",
"YY--xUUUS&--hUUUH----HUUUUUPp:IUUU1pPIUUUUS#   Nmmmg  .Nmmml  YY",
"YY-:LUUUp---JUUUs---rUUUUUUUIPUIUULIUUUUUUP,   gmmmN.  emmmmo YY",
"YY&pUUUL:--yUUUP2---MUUUHIUUUUUIUUUUUUIHUIZb   @mmmm0  Xmmmmi YY",
"YY-AUUUx---CUUUc---2IUUU0pIIIIIIUIUUUIptIJmm@   bmmmm   jmmmm YY",
"YY5IUUI5--4IUUU5---fUUUH&1PUUUKhkLUUUL1-Dmmmg   ,mmmm$  =mmmm=YY",
"YYxUUUUUUUUUUUUUIUUUUUUUIIIUUK:&-:LUUUUPmmmmmmmmmmmmmmmmmmmmmvYY",
"YYKIUUUUUUUUUUUUUUUUUUUUIIUUUh:&--zUUUISmmmmmmmmmmmmmmmmmmmmmNYY",
"YYKUUUUUUUIIUUUUUUUIUUUUUUUUUz----zUUUDmmmmmmmmmmmnmmmmmmmmmmmYY",
"YYxUUUUUUUUIUUUUUUUIUUUUUUUUUL:--:LUUDmmmmmmmmmmmmmmmmmmmmmmmlYY",
"YY6UUUI3:&4IUUU7--&fUUUH-:LUUULzzLUUJZO mmmmg   9mmmm$  $mmmm;YY",
"YY-FUUUf&&&CUUUc--&2UUUUtpPUUUUUIUUJmme0mmmm@   lmmmm   vmmmm.YY",
"YY-sUUUH-&&yIUUP2---MIUUHPUUUUUUUUJmmmmmmmmv   @mmmm0  ommmme YY",
"YY-2PUUU7:&-JUUUs---7UUUUUUUULUUUJmmmmmmmmm9   gmmmm  .immmNo YY",
"YY--MUUUM&--fUUUH:---DUUUUUIu:UUDmOemmmmmmN    mmmng   mmmml  YY",
"YY--tUUUL1--2PUUUt---zUUUUUHt-UZmm 0mmmmmml   0mmmm@  $Zmmm; .YY",
"YY---JUUUs---MUUUB--pUUUUUUUUHNmmmmmmmmmmmme  nmmmb   vmmmm   YY",
"YY---kUUUA---7IIIP3yPUUUUUUUJmmmmmmmmmmmmmmme$mmmm,  ommmme   YY",
"YY--&4IUUU4---DIUUAUUUUPxSPZmmmmmmmmmmmlmmmmmmmmmm   emmmmo   YY",
"YY--&-AUUUz---sIUUUUUUPp-#,vmmmmmmmmn9  emmmmmmmma   mmmml    YY",
"YY----pUUUL:--1LUUUUUPu%o   @gmmmmg@     emmmmmmNO  $mmmm;    YY",
"YY&---1LUUUt---MUUUUUC=       mmmm       $mmmmmmb   vmmmm     YY",
"YY--&&-MUUUB--yPUUUPDmNme     mmmm     9nmmmmmmmZe oNmmNe     YY",
"YY--&&&7UUUI2uPUUJZmmmmmmmg@  mmmm  OdmmmmmmmmmmmmeemmmNX     YY",
"YY------HIIUCPPDVmnmmmmmmmmmb>mmmm>bmmmmmmmmNbmmmmmmmmmv      YY",
"YY---&-&fIILDZmmmi oimmmmmmmmmmmmmmmmmmmmmNaO emmmmmmmm$      YY",
"YY--&&&%%DNmmmmNi     ,bmmmmmmmmmmmmmmmmm<     emmmmmmN       YY",
"YY##oo   mmmmmmm@       @gmmmmmmmmmmmNg@      oimmmmmmj       YY",
"YY      qmmmmmmmmmw.       9nmmmmmmme.      =jmmmmmmmmme      YY",
"YY     emmmmmmmmmmmNj=       $mmmm$      oemmmmmmmmmmmmme     YY",
"YY    emmmmmmmmmmmmmmmmaO     mmmm     $vNmmmmmmmmmjmmmmNe    YY",
"YY   wmmmmme @ammmmmmmmmNm9   mmmm  oeNmmmmmmmmmv;  qmmmmNi   YY",
"YY  wmmmmme     >lmmmmmmmmmNj$mmmm$jNmmmmmmmmmaO     qmmmmme  YY",
"YY emmmmme        oimmmmmmmmmmmmmmmmmmmmmmml=         eNmmmme YY",
"YYqNmmmme            $jNmmmmmmmmmmmmmmmmmio            emmmmNqYY",
"YYmmmmme               .9nmmmmmmmmmmmNb$                emmmmZYY",
"YYNmmme                   +gNmmmmmNNeo                   eNNmmYY",
"YYgNZq                       ;vmNb$                       qNZgYY",
"YYYYYYYYYYYYYYYYYYYYYYYYYYYYYYYYYYYYYYYYYYYYYYYYYYYYYYYYYYYYYYYY",
"YYYYYYYYYYYYYYYYYYYYYYYYYYYYYYYYYYYYYYYYYYYYYYYYYYYYYYYYYYYYYYYY"
};
