/* XPM */
static char *result[] = {
/* columns rows colors chars-per-pixel */
"64 64 32 1 ",
"  c #733729",
". c #814229",
"X c #824329",
"o c #8B4A2A",
"O c #BF702A",
"+ c #C3732B",
"@ c #C6762A",
"# c #CC7C2C",
"$ c #D2802C",
"% c #D5822C",
"& c #DA872D",
"* c #DB882D",
"= c #DD8A2E",
"- c #E38D2D",
"; c #E6902D",
": c #F29A2D",
"> c #F0992E",
", c #F1992E",
"< c #F19A2E",
"1 c #F29A2E",
"2 c #F39B2E",
"3 c #EC9D38",
"4 c #D9A555",
"5 c #D0A861",
"6 c #707F89",
"7 c #718895",
"8 c #6FB6D2",
"9 c #7ECADE",
"0 c #7ECBDF",
"q c #73CFEE",
"w c #6ED1F7",
"e c None",
/* pixels */
"eeeeeeeeeeeeeeeeeeeeeeeeeeeeee,:OOeeeeeeeeeeeeeeeeeeeeeeeeeeeeee",
"eeeeeeeeeeeeeeeeeeeeeeeeeee21111OOeeeeeeeeeeeeeeeeeeeeeeeeeeeeee",
"eeeeeeeeeeeeeeeeeeeeeeee11111111OOeeeeeeeeeeeeeeeeeeeeeeeeeeeeee",
"eeeeeeeeeeeeeeOOOOO+$->111111111OOOOOOOOOOOOOOOOOOeeeeeeeeeeeeee",
"eeeeeeeeeeeeeeOO@%;<111111111111OOOOOOOOOOOOOOOOOOeeeeeeeeeeeeee",
"eeeeeeeeeeeeeeOO1111111111111111OO              OOeeeeeeeeeeeeee",
"eeeeeeeeeeeeeeOO1111111111111111OO              OOeeeeeeeeeeeeee",
"eeeeeeeeeeeeeeOO1111111111111111OO              OOeeeeeeeeeeeeee",
"eeeeeeeeeeeeeeOO1111111111111111OO              OOeeeeeeeeeeeeee",
"eeeeeeeeeeeeeeOO1111111111111111OO              OOeeeeeeeeeeeeee",
"eeeeeeeeeeeeeeOO1111111111111111OO              OOeeeeeeeeeeeeee",
"eeeeeeeeeeeeeeOO1111111111111111OO              OOeeeeeeeeeeeeee",
"eeeeeeeeeeeeeeOO1111111111111111OO              OOeeeeeeeeeeeeee",
"eeeeeeeeeeeeeeOO1111111111111111OO              OOeeeeeeeeeeeeee",
"eeeeeeeeeeeeeeOO1111111111111111OO              OOeeeeeeeeeeeeee",
"eeeeeeeeeeeeeeOO1111111111111111OO              OOeeeeeeeeeeeeee",
"eeeeeeeeeeeeeeOO1111111111111111OO              OOeeeeeeeeeeeeee",
"eeeeeeeeeeeeeeOO1111111111111111OO              OOeeeeeeeeeeeeee",
"eeeeeeeeeeeeeeOO1111111111111111OO              OOeeeeeeeeeeeeee",
"eeeeeeeeeeeeeeOO1111111111111111OO              OOeeeeeeeeeeeeee",
"eeeeeeeeeeeeeeOO1111111111111111OO              OOeeeeeeeeeeeeee",
"eeeeeeeeeeeeeeOO1111111111111111OO              OOeeeeeeeeeeeeee",
"eeeeeeeeeeeeeeOO1111111111111111OO              OOeeeeeeeeeeeeee",
"eeeeeeeeeeeeeeOO1111111111111111OO              OOeeeeeeeeeeeeee",
"eeeeeeeeeeeeeeOO1111111111111111OO              OOeeeeeeeeeeeeee",
"eeeeeeeeeeeeeeOO1111111111111111OO              OOeeeeeeeeeeeeee",
"eeeeeeeeeeeeeeOO1111111111111111OO              OOeeeeeeeeeeeeee",
"eeeeeeeeeeeeeeOO1111111111111111OO              OOeeeeeeeeeeeeee",
"eeeeeeeeeeeeeeOO1111111111111111OO              OOeeeeeeeeeeeeee",
"eeeeeeeeeeeeeeOO1111111111135411OO              OOeeeeeeeeeeeeee",
"eeeeeeeeeeeeeeOO11111111==10wq11OO              OOeeeeeeeeeeeeee",
"eeeeeeeeeeeeeeOO111111&oX.o78w11OO              OOeeeeeeeeeeeeee",
"eeeeeeeeeeeeeeOO111111*#,,#68w11OO              OOeeeeeeeeeeeeee",
"eeeeeeeeeeeeeeOO11111111111www11OO              OOeeeeeeeeeeeeee",
"eeeeeeeeeeeeeeOO11111111111www11OO              OOeeeeeeeeeeeeee",
"eeeeeeeeeeeeeeOO111111111119wq11OO              OOeeeeeeeeeeeeee",
"eeeeeeeeeeeeeeOO1111111111135411OO              OOeeeeeeeeeeeeee",
"eeeeeeeeeeeeeeOO1111111111111111OO              OOeeeeeeeeeeeeee",
"eeeeeeeeeeeeeeOO1111111111111111OO              OOeeeeeeeeeeeeee",
"eeeeeeeeeeeeeeOO1111111111111111OO              OOeeeeeeeeeeeeee",
"eeeeeeeeeeeeeeOO1111111111111111OO              OOeeeeeeeeeeeeee",
"eeeeeeeeeeeeeeOO1111111111111111OO              OOeeeeeeeeeeeeee",
"eeeeeeeeeeeeeeOO1111111111111111OO              OOeeeeeeeeeeeeee",
"eeeeeeeeeeeeeeOO1111111111111111OO              OOeeeeeeeeeeeeee",
"eeeeeeeeeeeeeeOO1111111111111111OO              OOeeeeeeeeeeeeee",
"eeeeeeeeeeeeeeOO1111111111111111OO              OOeeeeeeeeeeeeee",
"eeeeeeeeeeeeeeOO1111111111111111OO              OOeeeeeeeeeeeeee",
"eeeeeeeeeeeeeeOO1111111111111111OO              OOeeeeeeeeeeeeee",
"eeeeeeeeeeeeeeOO1111111111111111OO              OOeeeeeeeeeeeeee",
"eeeeeeeeeeeeeeOO1111111111111111OO              OOeeeeeeeeeeeeee",
"eeeeeeeeeeeeeeOO1111111111111111OO              OOeeeeeeeeeeeeee",
"eeeeeeeeeeeeeeOO1111111111111111OO              OOeeeeeeeeeeeeee",
"eeeeeeeeeeeeeeOO1111111111111111OO              OOeeeeeeeeeeeeee",
"eeeeeeeeeeeeeeOO1111111111111111OO              OOeeeeeeeeeeeeee",
"eeeeeeeeeeeeeeOO1111111111111111OO              OOeeeeeeeeeeeeee",
"eeeeeeeeeeeeeeOO1111111111111111OO              OOeeeeeeeeeeeeee",
"eeeeeeeeeeeeeeOO1111111111111111OO              OOeeeeeeeeeeeeee",
"eeeeeeeeeeeeeeOO1111111111111111OO              OOeeeeeeeeeeeeee",
"eeeeeeeeeeeeeeOO1111111111111111OO              OOeeeeeeeeeeeeee",
"eeeeeeeeeeeeeeOO@%;<111111111111OOOOOOOOOOOOOOOOOOeeeeeeeeeeeeee",
"eeeeeeeeeeeeeeOOOOO+$->111111111OOOOOOOOOOOOOOOOOOeeeeeeeeeeeeee",
"eeeeeeeeeeeeeeeeeeeeeeee11111111OOeeeeeeeeeeeeeeeeeeeeeeeeeeeeee",
"eeeeeeeeeeeeeeeeeeeeeeeeeee21111OOeeeeeeeeeeeeeeeeeeeeeeeeeeeeee",
"eeeeeeeeeeeeeeeeeeeeeeeeeeeeee,:OOeeeeeeeeeeeeeeeeeeeeeeeeeeeeee"
};
