/* XPM */
static char *result[] = {
/* columns rows colors chars-per-pixel */
"64 64 132 2 ",
"   c #343333",
".  c #3B3332",
"X  c #36363A",
"o  c #3A363A",
"O  c #36383F",
"+  c #3B3A3B",
"@  c #532F2F",
"#  c #5E2E2D",
"$  c #4C312F",
"%  c #54302E",
"&  c #5A302D",
"*  c #443231",
"=  c #4B3131",
"-  c #533132",
";  c #593435",
":  c #622F2C",
">  c #6B2E2A",
",  c #772D27",
"<  c #7D2C27",
"1  c #732D2A",
"2  c #7A2B2B",
"3  c #68312F",
"4  c #6A3C3B",
"5  c #3D3A43",
"6  c #3F3C48",
"7  c #3A404F",
"8  c #3D4152",
"9  c #3D4458",
"0  c #3F4A65",
"q  c #3F4C69",
"w  c #444343",
"e  c #4C4D4D",
"r  c #4D4F50",
"t  c #535353",
"y  c #575A5B",
"u  c #5E5E5D",
"i  c #414965",
"p  c #425277",
"a  c #43547C",
"s  c #5D6162",
"d  c #656666",
"f  c #686868",
"g  c #6D7274",
"h  c #747373",
"j  c #74797B",
"k  c #7C7C7C",
"l  c #AB1B1B",
"z  c #B21D1D",
"x  c #A7291F",
"c  c #AB281F",
"v  c #B6271D",
"b  c #BC271C",
"n  c #B1281E",
"m  c #842C25",
"M  c #8B2B24",
"N  c #842A29",
"B  c #8A2929",
"V  c #962727",
"C  c #9B2727",
"Z  c #932A23",
"A  c #9B2A22",
"S  c #922828",
"D  c #98342E",
"F  c #903130",
"G  c #913A36",
"H  c #A32626",
"J  c #AC2525",
"K  c #A32920",
"L  c #B42423",
"P  c #BC2323",
"I  c #BF2E23",
"U  c #AC3730",
"Y  c #B43C36",
"T  c #BF3E38",
"R  c #C3261B",
"E  c #CC241B",
"W  c #DC2417",
"Q  c #D3241A",
"!  c #DA2319",
"~  c #E52315",
"^  c #E52618",
"/  c #C42222",
"(  c #C92220",
")  c #CE3D35",
"_  c #E8372D",
"`  c #E93A31",
"'  c #80403F",
"]  c #E9433C",
"[  c #A74744",
"{  c #BD4945",
"}  c #BB4A48",
"|  c #EB4741",
" . c #EB4E4A",
".. c #ED534F",
"X. c #445782",
"o. c #455A88",
"O. c #475F93",
"+. c #49639B",
"@. c #4B65A2",
"#. c #4D6AAC",
"$. c #4F6EB5",
"%. c #7E8486",
"&. c #848484",
"*. c #858C8E",
"=. c #949494",
"-. c #959D9F",
";. c #9B9B9B",
":. c #99A1A4",
">. c #A0A0A0",
",. c #A2ACAE",
"<. c #ACACAD",
"1. c #A7B1B4",
"2. c gray70",
"3. c #BEBEBE",
"4. c #B7C2C5",
"5. c #CDCECE",
"6. c #CEDBDF",
"7. c #D5D5D5",
"8. c #DCDDDD",
"9. c #D2DFE3",
"0. c #D4E2E6",
"q. c #D6E4E8",
"w. c #D8E6EA",
"e. c #DCE9EC",
"r. c gray90",
"t. c #E2ECEF",
"y. c gray92",
"u. c #E4EEF0",
"i. c #EDF3F5",
"p. c #F2F5F6",
"a. c #FFFFFF",
"s. c None",
/* pixels */
"s.s.s.s.s.s.s.s.s.s.s.s.s.s.s.s.s.s.s.s.s.s.s.s.s.s.s.s.s.s.s.s.s.s.s.s.s.s.s.s.s.s.s.s.s.s.s.s.s.s.s.s.s.s.s.s.s.s.s.s.s.s.s.s.",
"s.s.s.s.s.s.s.s.s.s.s.s.s.s.s.s.s.s.s.s.s.s.s.s.s.s.s.s.s.s.s.s.s.s.s.s.s.s.s.s.s.s.s.s.s.s.s.s.s.s.s.s.s.s.s.s.s.s.s.s.s.s.s.s.",
"s.s.s.s.s.s.s.s.s.s.s.s.s.s.s.s.s.s.s.s.s.s.s.s.s.s.s.s.s.s.s.s.s.s.s.s.s.s.s.s.s.s.s.s.s.s.s.s.s.s.s.s.s.s.s.s.s.s.s.s.s.s.s.s.",
"s.s.s.s.s.s.s.s.s.s.s.s.s.s.s.s.s.s.s.s.s.s.s.s.s.s.s.s.s.            s.s.s.s.s.s.s.s.s.s.s.s.s.s.s.s.s.s.s.s.s.s.s.s.s.s.s.s.s.",
"s.s.s.s.s.s.s.s.s.s.s.s.s.s.s.s.s.s.s.s.s.s.s.s.s.s..       . $ - *       . s.s.s.s.s.s.s.s.s.s.s.s.s.s.s.s.s.s.s.s.s.s.s.s.s.s.",
"s.s.s.s.s.s.s.s.s.s.s.s.s.s.s.s.s.s.s.s.s.s.s.s.    . m R W E / / / P J 2 .     s.s.s.s.s.s.s.s.s.s.s.s.s.s.s.s.s.s.s.s.s.s.s.s.",
"s.s.s.s.s.s.s.s.s.s.s.s.s.s.s.s.s.s.s.s.s.s.s.  . Z W ~ ~ ~ / / / / / / / P B .   s.s.s.s.s.s.s.s.s.s.s.s.s.s.s.s.s.s.s.s.s.s.s.",
"s.s.s.s.s.s.s.s.s.s.s.s.s.s.s.s.s.s.s.s.s.s.  . b ~ ^ ~ ~ ! / / / / / / / / / L =   s.s.s.s.s.s.s.s.s.s.s.s.s.s.s.s.s.s.s.s.s.s.",
"s.s.s.s.s.s.s.s.s.s.s.s.s.s.s.s.s.s.s.s.s.    R ~ ~ ~ ~ ^ ( / / / / / / / / / / P .   s.s.s.s.s.s.s.s.s.s.s.s.s.s.s.s.s.s.s.s.s.",
"s.s.s.s.s.s.s.s.s.s.s.s.s.s.s.s.s.s.s.s.s.  m ~ ~ ~ ~ ~ ^ / / / / / / / / / / / / S     s.s.s.s.s.s.s.s.s.s.s.s.s.s.s.s.s.s.s.s.",
"s.s.s.s.s.s.s.s.s.s.s.s.s.s.s.s.s.s.s.s.  . ~ ~ ~ ~ ~ ~ ~ / / / / / / / / / / / / / @ . s.s.s.s.s.s.s.s.s.s.s.s.s.s.s.s.s.s.s.s.",
"s.s.s.s.s.s.s.s.s.s.s.s.s.s.s.s.s.s.s.s.  < ~ ~ ~ ~ ~ ~ Q / / / / / / / / / / / / / B   s.s.s.s.s.s.s.s.s.s.s.s.s.s.s.s.s.s.s.s.",
"s.s.s.s.s.s.s.s.s.s.s.s.s.s.s.s.s.s.s.s.  n E m ! ~ ~ ~ Q / / / / / / / / / / P 1 J L     s.s.s.s.s.s.s.s.s.s.s.s.s.s.s.s.s.s.s.",
"s.s.s.s.s.s.s.s.s.s.s.s.s.s.s.s.s.s.s.s.  E :   1 ~ ~ ~ ( / / / / / / / / / / 1   = / .   s.s.s.s.s.s.s.s.s.s.s.s.s.s.s.s.s.s.s.",
"s.s.s.s.s.s.s.s.s.s.s.s.s.s.s.s.s.s.s.    Z   t   b ~ ~ / / / / / / / / / / L   t   2 =   s.s.s.s.s.s.s.s.s.s.s.s.s.s.s.s.s.s.s.",
"s.s.s.s.s.s.s.s.s.s.s.s.s.s.s.s.s.s.s.    . d r.o # ~ ! / / / / / / / / / / #   7.k   * . s.s.s.s.s.s.s.s.s.s.s.s.s.s.s.s.s.s.s.",
"s.s.s.s.s.s.s.s.s.s.s.s.s.s.s.s.s.s.s.s.    7.a.=.  J Q / / / / / / / / / H   &.a.r.X   * s.s.s.s.s.s.s.s.s.s.s.s.s.s.s.s.s.s.s.",
"s.s.s.s.s.s.s.s.s.s.s.s.s.s.s.s.s.s.s.s.  u a.a.p.w = E / / / / / / / / / = + y.a.a.h   = s.s.s.s.s.s.s.s.s.s.s.s.s.s.s.s.s.s.s.",
"s.s.s.s.s.s.s.s.s.s.s.s.s.s.s.s.s.s.s.s.  &.a.a.a.2.  < / / / / / / / / N   >.a.a.a.=.  $ s.s.s.s.s.s.s.s.s.s.s.s.s.s.s.s.s.s.s.",
"s.s.s.s.s.s.s.s.s.s.s.s.s.s.s.s.s.s.s.s.  ;.a.a.a.a.u . L / / / / / / P * r p.a.a.a.2.  s.s.s.s.s.s.s.s.s.s.s.s.s.s.s.s.s.s.s.s.",
"s.s.s.s.s.s.s.s.s.s.s.s.s.s.s.s.s.s.s.s.  <.a.a.a.a.5.  3 / / / / / / 1   4.a.a.a.a.3.  s.s.s.s.s.s.s.s.s.s.s.s.s.s.s.s.s.s.s.s.",
"s.s.s.s.s.s.s.s.s.s.s.s.s.s.s.s.s.s.s.s.  *.i.a.a.a.a.k   H / / / / J   f a.a.a.a.p.-.  s.s.s.s.s.s.s.s.s.s.s.s.s.s.s.s.s.s.s.s.",
"s.s.s.s.s.s.s.s.s.s.s.s.s.s.s.s.s.s.s.s.  h q.t.a.a.a.y.+ % / / / / ;   7.a.a.a.u.w.%.  s.s.s.s.s.s.s.s.s.s.s.s.s.s.s.s.s.s.s.s.",
"s.s.s.s.s.s.s.s.s.s.s.s.s.s.s.s.s.s.s.s.. 7 q.q.q.i.a.a.;.  M / / C   &.a.a.i.e.w.q.r o s.s.s.s.s.s.s.s.s.s.s.s.s.s.s.s.s.s.s.s.",
"s.s.s.s.s.s.s.s.s.s.s.s.s.s.s.s.s.s.s.s.    1.w.w.w.e.i.8.  & / / :   5.p.e.w.w.w.4.  * s.s.s.s.s.s.s.s.s.s.s.s.s.s.s.s.s.s.s.s.",
"s.s.s.s.s.s.s.s.s.s.s.s.s.s.s.s.s.s.s.s.s.  r q.w.w.w.,.7   M / / S   + :.w.w.w.q.y   - s.s.s.s.s.s.s.s.s.s.s.s.s.s.s.s.s.s.s.s.",
"s.s.s.s.s.s.s.s.s.s.s.s.s.s.s.s.s.s.s.s.s.    j q.9.j   * H / / / P J =   g 6.w.%.    s.s.s.s.s.s.s.s.s.s.s.s.s.s.s.s.s.s.s.s.s.",
"s.s.s.s.s.s.s.s.s.s.s.s.s.s.s.s.s.s.s.s.s.  $   s r   : P / z l l z / / >   e d   =   s.s.s.s.s.s.s.s.s.s.s.s.s.s.s.s.s.s.s.s.s.",
"s.s.s.s.s.s.s.s.s.s.s.s.s.s.s.s.s.s.s.s.s.$ & Z   o A / / / / / / / / / P V .   2 : . s.s.s.s.s.s.s.s.s.s.s.s.s.s.s.s.s.s.s.s.s.",
"s.s.s.s.s.s.s.s.s.s.s.s.s.s.s.s.s.s.s.s.s.:   Q R Q ~ / / / / / / / / / / / L J / . # s.s.s.s.s.s.s.s.s.s.s.s.s.s.s.s.s.s.s.s.s.",
"s.s.s.s.s.s.s.s.s.s.s.s.s.s.s.s.s.s.s.s.s.s.  A ~ ~ ~ / / / / / / / / / / / / / C   N s.s.s.s.s.s.s.s.s.s.s.s.s.s.s.s.s.s.s.s.s.",
"s.s.s.s.s.s.s.s.s.s.s.s.s.s.s.s.s.s.s.s.s.s.. : ~ ~ ~ E / / / / / / / / / / / / 1   s.s.s.s.s.s.s.s.s.s.s.s.s.s.s.s.s.s.s.s.s.s.",
"s.s.s.s.s.s.s.s.s.s.s.s.s.s.s.s.s.s.s.s.s.s.    M ~ ~ ( / / / / / / / / / / / V   $ s.s.s.s.s.s.s.s.s.s.s.s.s.s.s.s.s.s.s.s.s.s.",
"s.s.s.s.s.s.s.s.s.s.s.s.s.s.s.s.s.s.s.s.s.s.s..   c ~ ( / / / / / / / / / / J . *   s.s.s.s.s.s.s.s.s.s.s.s.s.s.s.s.s.s.s.s.s.s.",
"s.s.s.s.s.s.s.s.s.s.s.s.s.s.s.s.s.s.s.s.s.s.s.  * . b ( / / / z z / / / / L . .     s.s.s.s.s.s.s.s.s.s.s.s.s.s.s.s.s.s.s.s.s.s.",
"s.s.s.s.s.s.s.s.s.s.s.s.s.s.s.s.s.s.s.s.s.s.s.  V . . H / / / P P / / / J *   V     s.s.s.s.s.s.s.s.s.s.s.s.s.s.s.s.s.s.s.s.s.s.",
"s.s.s.s.s.s.s.s.s.s.s.s.s.s.s.s.s.s.s.s.s.s.s.  J J *   2 J L / / P L B . . V P     s.s.s.s.s.s.s.s.s.s.s.s.s.s.s.s.s.s.s.s.s.s.",
"s.s.s.s.s.s.s.s.s.s.s.s.s.s.s.s.s.s.s.s.s.s.s.  v / P :       . *       = J / L     s.s.s.s.s.s.s.s.s.s.s.s.s.s.s.s.s.s.s.s.s.s.",
"s.s.s.s.s.s.s.s.s.s.s.s.s.s.s.s.s.s.s.s.s.s.    ( ( / / C B 2 # - : 2 V P / / P     s.s.s.s.s.s.s.s.s.s.s.s.s.s.s.s.s.s.s.s.s.s.",
"s.s.s.s.s.s.s.s.s.s.s.s.s.s.s.s.s.s.s.          R ~ E / / / / / / / / / / / ( E           s.s.s.s.s.s.s.s.s.s.s.s.s.s.s.s.s.s.s.",
"s.s.s.s.s.s.s.s.s.s.s.s.s.s.s.s.        : U G   R ~ ~ W R R / / / / / / ( Q ~ Q   , c >         s.s.s.s.s.s.s.s.s.s.s.s.s.s.s.s.",
"s.s.s.s.s.s.s.s.s.s.s.s.s.s.    * D ) ; 4 ..[   E ~ ~ ~ ~ Q E E / / ( Q W ~ ~ ! . S ~ # * b M *     s.s.s.s.s.s.s.s.s.s.s.s.s.s.",
"s.s.s.s.s.s.s.s.s.s.s.s.    = T  .....}   } ] I ~ ~ ~ ~ ~ ~ ~ ~ ~ ~ ~ ~ ~ ~ ~ ~ R ~ n   A ~ ~ ~ A *     s.s.s.s.s.s.s.s.s.s.s.s.",
"s.s.s.s.s.s.s.s.s.      * Y ........| ` : % ~ ~ ~ ~ ~ ~ ~ ~ ~ ~ ~ ~ ~ ~ ~ ~ ~ ~ ~ ~ @ * W ~ ~ ~ ~ ~ A *       s.s.s.s.s.s.s.s.s.",
"s.s.s.s.s.s.        = Y  ..... ._ ~ ~ ~ b   x ~ ~ ~ ~ ~ ~ ~ ~ ~ ~ ~ ~ ~ ~ ~ ~ ~ ~ x   A ~ ~ ~ ~ ~ ~ ~ W M *         s.s.s.s.s.s.",
"s.s.s.s.      @ . F  ..... .` ~ ~ ~ ~ ~ ~ 3 $ W ~ ~ ~ ~ ~ ~ ~ ~ ~ ~ ~ ~ ~ ~ ~ ~ ~ * $ ~ ~ ~ ~ ~ ~ ~ ~ ~ ~ ! B . -       s.s.s.s.",
"s.s.s.    > L / <   ' ..` ^ ~ ~ ~ ~ ~ ~ ~ b   Z ~ ~ ~ ~ ~ ~ ~ ~ ~ ~ ~ ~ ~ ~ ~ ~ Z   x ~ ~ ~ ~ ~ ~ ~ ~ ~ ~ N   > / L > .   s.s.s.",
"s.s..   C / / / R A . & E ~ ~ ~ ~ ~ ~ ~ ~ ~ 3 * W ~ ~ ~ ~ ~ ~ E E ~ ~ ~ ~ ~ ~ W . @ ~ ~ ~ ~ ~ ~ ~ ~ ~ E @ . S / / / / H   . s.s.",
"s.s.  N / / / / / / P @ . K ~ ~ ~ ~ ~ ~ ~ ~ R   m ~ ~ ~ ~ ~ v     x ~ ~ ~ ~ ~ m   c ~ ~ ~ ~ ~ ~ ~ ~ x . % L / / / / / / N     s.",
"s.  = / / / / / / / E ~ m   1 W ~ ~ ~ ~ ~ ~ ~ , . Q ~ ~ ~ ~ ,     : ~ ~ ~ ~ Q . % ~ ~ ~ ~ ~ ~ ~ ~ ,   > W ( / / / / / / / %   s.",
"s.  2 P P P P P / / / ~ ~ x . $ R ~ ~ ~ ~ ~ ~ E   , ~ ~ ~ ~ K     m ~ ~ ~ ~ <   n ~ ~ ~ ~ ~ ~ R $   A ~ ^ / / / P P P P P 2   s.",
"                . ; B ! ~ ~ E $   Z ~ ~ ~ ~ ~ ~ ,   R ~ ~ ~ W     R ~ ~ ~ E   & ~ ~ ~ ~ ~ ~ A   $ b ~ ~ Q N - .                 ",
"  5 $.$.$.#.$.$.@.X.5 3 W ~ ~ W >   > W ~ ~ ~ ~ E : Q ~ x A >     % x Z ~ b   b ~ ~ ~ ~ W >   : Q ~ ~ Q - 6 o.#.$.$.$.$.$.$.X   ",
"    5 X.$.$.$.$.$.$.$.w 1 ~ ~ ~ ~ Z   $ b ~ ~ ~ ~ ~ ~ ~ v &         $ x ~ ~ ~ ~ ~ ~ ~ b *   m ~ ~ ~ ~ - 0 $.$.$.$.$.$.$.a +     ",
"s.        9 +.$.$.$.$.#.o b ~ ~ ~ ~ b $   M ~ ~ ~ ~ ~ ~ ~ W         Q ~ ~ ~ ~ ~ ~ ~ M   * c ~ ~ ~ ~ A 5 $.$.$.$.$.+.8         s.",
"s.s.s.s.      X q @.$.$.p 3 ~ ~ ~ ~ ~ Q &   : Q ~ ~ ~ ~ E <         , b ~ ~ ~ ~ Q :   % E ~ ~ ~ ~ ~ * +.$.$.@.0         s.s.s.s.",
"s.s.s.s.s.s.        X 8 q X ~ ~ ~ ~ ~ ~ ~ m   * v ~ ~ ~ m m 1     & m m ~ ~ ~ n *   , W ~ ~ ~ ~ ~ E o a 8           s.s.s.s.s.s.",
"s.s.s.s.s.s.s.s.s.      X   = < c E ~ ~ ~ ~ c . : ~ ~ ~ ~ ~ ~ A M ~ ~ ~ ~ ~ ~ $ . A ~ ~ ~ ~ E c m *           s.s.s.s.s.s.s.s.s.",
"s.s.s.s.s.s.s.s.s.s.s.s.s.            $ > m x c v W ~ ~ ~ ~ ~ ~ ~ ~ ~ ~ ~ ~ ~ n c K m > $             s.s.s.s.s.s.s.s.s.s.s.s.s.",
"s.s.s.s.s.s.s.s.s.s.s.s.s.s.s.s.s.s.                  . * $ & : & & $ $ .                   s.s.s.s.s.s.s.s.s.s.s.s.s.s.s.s.s.s.",
"s.s.s.s.s.s.s.s.s.s.s.s.s.s.s.s.s.s.s.s.s.s.s.s.                                s.s.s.s.s.s.s.s.s.s.s.s.s.s.s.s.s.s.s.s.s.s.s.s.",
"s.s.s.s.s.s.s.s.s.s.s.s.s.s.s.s.s.s.s.s.s.s.s.s.s.s.s.s.s.s.s.s.s.s.s.s.s.s.s.s.s.s.s.s.s.s.s.s.s.s.s.s.s.s.s.s.s.s.s.s.s.s.s.s.",
"s.s.s.s.s.s.s.s.s.s.s.s.s.s.s.s.s.s.s.s.s.s.s.s.s.s.s.s.s.s.s.s.s.s.s.s.s.s.s.s.s.s.s.s.s.s.s.s.s.s.s.s.s.s.s.s.s.s.s.s.s.s.s.s.",
"s.s.s.s.s.s.s.s.s.s.s.s.s.s.s.s.s.s.s.s.s.s.s.s.s.s.s.s.s.s.s.s.s.s.s.s.s.s.s.s.s.s.s.s.s.s.s.s.s.s.s.s.s.s.s.s.s.s.s.s.s.s.s.s."
};
