/* XPM */
static char *result[] = {
/* columns rows colors chars-per-pixel */
"64 64 212 2 ",
"   c #242022",
".  c #262224",
"X  c #262325",
"o  c #272325",
"O  c #272326",
"+  c #282526",
"@  c #292627",
"#  c #292528",
"$  c #292629",
"%  c #2A2628",
"&  c #2A2629",
"*  c #2A2729",
"=  c #2B2729",
"-  c #2A272A",
";  c #2B292A",
":  c #2B282B",
">  c #2C282A",
",  c #2C282B",
"<  c #2D292B",
"1  c #2C292C",
"2  c #2D292C",
"3  c #2C2A2C",
"4  c #2D2A2C",
"5  c #2D2A2D",
"6  c #2E2A2E",
"7  c #2F2A2E",
"8  c #2F2B2F",
"9  c #2F2C2F",
"0  c #2F2D2F",
"q  c #302C2F",
"w  c #2F2C30",
"e  c #2F2D30",
"r  c #302D30",
"t  c #312D30",
"y  c #302E30",
"u  c #312E31",
"i  c #312F32",
"p  c #312E33",
"a  c #312F33",
"s  c #322E32",
"d  c #322F32",
"f  c #332F32",
"g  c #322E33",
"h  c #322F33",
"j  c #332F34",
"k  c #323033",
"l  c #333033",
"z  c #343033",
"x  c #323034",
"c  c #333035",
"v  c #343134",
"b  c #353135",
"n  c #343234",
"m  c #353235",
"M  c #363235",
"N  c #353236",
"B  c #353336",
"V  c #353237",
"C  c #353337",
"Z  c #373337",
"A  c #373437",
"S  c #353238",
"D  c #353339",
"F  c #363438",
"G  c #373538",
"H  c #363439",
"J  c #373439",
"K  c #373539",
"L  c #37353A",
"P  c #38353A",
"I  c #38353B",
"U  c #39373B",
"Y  c #3B363A",
"T  c #3A373B",
"R  c #39383D",
"E  c #3A383C",
"W  c #3B383C",
"Q  c #3B393C",
"!  c #3A393D",
"~  c #3B393F",
"^  c #3C383C",
"/  c #3C383D",
"(  c #3C393D",
")  c #3B3940",
"_  c #3D3B40",
"`  c #3C3A41",
"'  c #3D3C42",
"]  c #3E3C42",
"[  c #3F3D44",
"{  c #403D43",
"}  c #424046",
"|  c #424147",
" . c #444247",
".. c #444347",
"X. c #424048",
"o. c #424148",
"O. c #434148",
"+. c #454349",
"@. c #46444C",
"#. c #46454D",
"$. c #48464E",
"%. c #4B494E",
"&. c #494851",
"*. c #4A4950",
"=. c #4C4A50",
"-. c #4C4A51",
";. c #4E4D57",
":. c #504E54",
">. c #514F59",
",. c #535155",
"<. c #525056",
"1. c #51515A",
"2. c #51515B",
"3. c #56545A",
"4. c #59575B",
"5. c #555560",
"6. c #595964",
"7. c #5A5A66",
"8. c #5F5E64",
"9. c #5E5E6A",
"0. c #64646B",
"q. c #60606D",
"w. c #60616E",
"e. c #61626F",
"r. c #68666C",
"t. c #626270",
"y. c #636370",
"u. c #656674",
"i. c #666774",
"p. c #666775",
"a. c #676874",
"s. c #686875",
"d. c #696A76",
"f. c #6E6D76",
"g. c #6E6E76",
"h. c #6A6C7C",
"j. c #6E6F7E",
"k. c #6F707F",
"l. c #737277",
"z. c #737378",
"x. c #7A7A7F",
"c. c #737685",
"v. c #737687",
"b. c #747786",
"n. c #747887",
"m. c #787881",
"M. c #7B7B81",
"N. c #7A7A84",
"B. c #7E7D84",
"V. c #757788",
"C. c #757888",
"Z. c #757988",
"A. c #777889",
"S. c #767989",
"D. c #777B8A",
"F. c #797C8B",
"G. c #7E8394",
"H. c #818087",
"J. c #83848E",
"K. c #86868D",
"L. c #87878E",
"P. c #8D8D94",
"I. c #86899B",
"U. c #8F909C",
"Y. c #94949C",
"T. c #94969F",
"R. c #888DA0",
"E. c #888EA1",
"W. c #898DA2",
"Q. c #898EA2",
"!. c #8A8FA3",
"~. c #8C8FA2",
"^. c #8A8FA4",
"/. c #8B90A4",
"(. c #8D91A5",
"). c #8E93A6",
"_. c #8F94A7",
"`. c #9797A2",
"'. c #989CB1",
"]. c #999CB1",
"[. c #989CB2",
"{. c #999CB2",
"}. c #999CB3",
"|. c #9A9DB3",
" X c #9A9EB3",
".X c #9A9EB4",
"XX c #9B9FB4",
"oX c #9C9FB4",
"OX c #9DA0B5",
"+X c #9EA1B6",
"@X c #A5AAC2",
"#X c #A6ABC3",
"$X c #A7ACC4",
"%X c #A9ADC4",
"&X c #ABAFC6",
"*X c #ADB3CC",
"=X c #AFB5CE",
"-X c #B4B5C1",
";X c #B0B6CE",
":X c #B2B7D0",
">X c #B6BBD6",
",X c #B6BCD7",
"<X c #B7BCD8",
"1X c #B8BDD8",
"2X c #B8BED8",
"3X c #B8BED9",
"4X c #B9BFD9",
"5X c #BABFD9",
"6X c #BBC0DB",
"7X c #BCC1DB",
"8X c #BDC2DC",
"9X c None",
/* pixels */
"9X9X9X9X9X9X9X9X9X9X9X9X9X9X9X9X9X9X9X9X9X9X9X9X9X9X9X9X9X9X9X9X9X9X9X9X9X9X9X9X9X9X9X9X9X9X9X9X9X9X9X9X9X9X9X9X9X9X9X9X9X9X9X9X",
"9X9X9X9X9X9X9X9X9X9X9X9X9X9X9X9X9X9X9X9X9X9X9X9X9X9X9X9X9X9X9X9X9X9X9X9X9X9X9X9X9X9X9X9X9X9X9X9X9X9X9X9X9X9X9X9X9X9X9X9X9X9X9X9X",
"9X9XU ^ ^ ^ ^ ^ ^ ^ ^ Y , m m m m m m m m m m m m m m m m m m m B ^ ^ ^ ^ ^ ^ ^ ^ ^ ^ ^ ^ ^ ^ ^ ^ ^ ^ v n m m m m m m m m c 9X9X",
"9X9XQ `.-X-X-X-X-X-X-XT.o U.U.U.U.U.U.U.U.U.U.U.U.U.U.U.U.U.U.U.< -X-X-X-X-X-X-X-X-X-X-X-X-X-X-X-X-X-Xd J.U.U.U.U.U.U.U.N.b 9X9X",
"9X9Xu .X3X3X3X3X3X3X3X[.X !.!.!.!.!.!.!.!.!.!.!.!.!.!.!.!.!.!.!.& 3X3X3X3X3X3X3X3X3X3X3X3X3X3X3X3X3X3X1 G.!.!.!.!.!.!.!.C.3 9X9X",
"9X9Xu .X3X3X3X3X3X3X3X[.X !.!.!.!.!.!.!.!.!.!.!.!.!.!.!.!.!.!.!.& 3X3X3X3X3X3X3X3X3X3X3X3X3X3X3X3X3X3X1 G.!.!.!.!.!.!.!.C.3 9X9X",
"9X9Xu .X3X3X3X3X3X3X3X[.X !.!.!.!.!.!.!.!.!.!.!.!.!.!.!.!.!.!.!.& 3X3X3X3X3X3X3X3X3X3X3X3X3X3X3X3X3X3X1 G.!.!.!.!.!.!.!.C.3 9X9X",
"9X9Xu .X3X3X3X3X3X3X3X[.X !.!.!.!.!.!.!.!.!.!.!.!.!.!.!.!.!.!.!.& 3X3X3X3X3X3X3X3X3X3X3X3X3X3X3X3X3X3X1 G.!.!.!.!.!.!.!.C.3 9X9X",
"9X9Xu  X2X2X2X2X2X2X2X'.X !.!.!.!.!.!.!.!.!.!.!.!.!.!.!.!.!.!.!.& 2X2X2X2X2X2X2X2X2X2X2X2X2X2X2X2X2X2X1 G.!.!.!.!.!.!.!.C.3 9X9X",
"9X9Xk $.>.>.>.>.>.>.>.#.  X.X.X.X.X.X.X.X.~ X.X.X.X.X.X.X.X.X.X.. >.>.>.>.>.>.>.>.>.@.>.>.>.>.>.>.>.>.& [ X.X.X.X.X.X.X.` 7 9X9X",
"9X9XE r.x.x.x.x.x.x.x.x.x.x.x.x.x.x.x.x.x.> 0.0.0.0.0.0.0.0.0.0.0.0.0.0.0.0.0.0.0.0.> x.x.x.x.x.x.x.x.x.x.x.x.x.x.x.x.x.r.E 9X9X",
"9X9Xd +X8X8X8X8X8X8X8X8X8X8X8X8X8X8X8X8X8X% _._._._._._._._._._._._._._._._._._._._.% 8X8X8X8X8X8X8X8X8X8X8X8X8X8X8X8X8X+Xd 9X9X",
"9X9Xu .X3X3X3X3X3X3X3X3X3X3X3X3X3X3X3X3X3X# !.!.!.!.!.!.!.!.!.!.!.!.!.!.!.!.!.!.!.!.# 3X3X3X3X3X3X3X3X3X3X3X3X3X3X3X3X3X.Xu 9X9X",
"9X9Xu .X3X3X3X3X3X3X3X3X3X3X3X3X3X3X3X3X3X# !.!.!.!.!.!.!.!.!.!.!.!.!.!.!.!.!.!.!.!.# 3X3X3X3X3X3X3X3X3X3X3X3X3X3X3X3X3X.Xu 9X9X",
"9X9Xu .X3X3X3X3X3X3X3X3X3X3X3X3X3X3X3X3X3X# !.!.!.!.!.!.!.!.!.!.!.!.!.!.!.!.!.!.!.!.# 3X3X3X3X3X3X3X3X3X3X3X3X3X3X3X3X3X.Xu 9X9X",
"9X9Xu .X3X3X3X3X3X3X3X3X3X3X3X3X3X3X3X3X3X# !.!.!.!.!.!.!.!.!.!.!.!.!.!.!.!.!.!.!.!.# 3X3X3X3X3X3X3X3X3X3X3X3X3X3X3X3X3X.Xu 9X9X",
"9X9Xu .X3X3X3X3X3X3X3X3X3X3X3X3X3X3X3X3X3X# !.!.!.!.!.!.!.!.!.!.!.!.!.!.!.!.!.!.!.!.# 3X3X3X3X3X3X3X3X3X3X3X3X3X3X3X3X3X.Xu 9X9X",
"9X9Xu .X3X3X3X3X3X3X3X3X3X3X3X3X3X3X3X3X3X# !.!.!.!.!.!.!.!.!.!.!.!.!.!.!.!.!.!.!.!.# 3X3X3X3X3X3X3X3X3X3X3X3X3X3X3X3X3X.Xu 9X9X",
"9X9Xu .X3X3X3X3X3X3X3X3X3X3X3X3X3X3X3X3X3X# !.!.!.!.!.!.!.!.!.!.!.!.!.!.!.!.!.!.!.!.# 3X3X3X3X3X3X3X3X3X3X3X3X3X3X3X3X3X.Xu 9X9X",
"9X9Xu |.1X1X1X1X1X1X1X1X1X1X1X1X1X1X1X1X1X# Q.Q.Q.Q.Q.Q.Q.Q.Q.Q.Q.Q.Q.Q.Q.Q.Q.Q.Q.Q.# 1X1X1X1X1X1X1X1X1X1X1X1X1X1X1X1X1X|.u 9X9X",
"9X9Xg $.>.>.>.>.>.>.>.>.7.k.k.k.k.k.k.k.k.- X.X.X.X.X.X.X.X.X.X.R X.X.X.X.X.X.X.X.X.O >.>.>.>.>.>.>.>.1.j.k.k.k.k.k.k.k.q.J 9X9X",
"9X9XW l.K.K.K.K.K.K.K.M.A -.-.-.-.-.-.-.-.<.f.f.f.f.f.f.f.f.f.f.@ K.K.K.K.K.K.K.K.K.K.K.K.K.K.K.K.K.K.l  .-.-.-.-.-.-.-...s 9X9X",
"9X9Xd OX7X7X7X7X7X7X7X&Xr ).).).).).).).).).).).).).).).).).).).= 7X7X7X7X7X7X7X7X7X7X7X7X7X7X7X7X7X7XP D.).).).).).).).F.5 9X9X",
"9X9Xu .X3X3X3X3X3X3X3X$X9 !.!.!.!.!.!.!.!.!.!.!.!.!.!.!.!.!.!.!.& 3X3X3X3X3X3X3X3X3X3X3X3X3X3X3X3X3X3XJ n.!.!.!.!.!.!.!.C.3 9X9X",
"9X9Xu .X3X3X3X3X3X3X3X$X9 !.!.!.!.!.!.!.!.!.!.!.!.!.!.!.!.!.!.!.& 3X3X3X3X3X3X3X3X3X3X3X3X3X3X3X3X3X3XJ n.!.!.!.!.!.!.!.C.3 9X9X",
"9X9Xu .X3X3X3X3X3X3X3X$X9 !.!.!.!.!.!.!.!.!.!.!.!.!.!.!.!.!.!.!.& 3X3X3X3X3X3X3X3X3X3X3X3X3X3X3X3X3X3XJ n.!.!.!.!.!.!.!.C.3 9X9X",
"9X9Xu .X3X3X3X3X3X3X3X$X9 !.!.!.!.!.!.!.!.!.!.!.!.!.!.!.!.!.!.!.& 3X3X3X3X3X3X3X3X3X3X3X3X3X3X3X3X3X3XJ n.!.!.!.!.!.!.!.C.3 9X9X",
"9X9Xu .X3X3X3X3X3X3X3X$X9 !.!.!.!.!.!.!.!.!.!.!.!.!.!.!.!.!.!.!.& 3X3X3X3X3X3X3X3X3X3X3X3X3X3X3X3X3X3XJ n.!.!.!.!.!.!.!.C.3 9X9X",
"9X9Xu .X3X3X3X3X3X3X3X$X9 !.!.!.!.!.!.!.!.!.!.!.!.!.!.!.!.!.!.!.& 3X3X3X3X3X3X3X3X3X3X3X3X3X3X3X3X3X3XJ n.!.!.!.!.!.!.!.C.3 9X9X",
"9X9Xu .X3X3X3X3X3X3X3X$X9 !.!.!.!.!.!.!.!.!.!.!.!.!.!.!.!.!.!.!.& 3X3X3X3X3X3X3X3X3X3X3X3X3X3X3X3X3X3XJ n.!.!.!.!.!.!.!.C.3 9X9X",
"9X9Xi }.<X<X<X<X<X<X<X#Xw W.W.W.W.W.W.W.W.W.W.W.W.W.W.W.W.W.W.W.& <X<X<X<X<X<X<X<X<X<X<X<X<X<X<X<X<X<XK v.W.W.W.W.W.W.W.V.4 9X9X",
"9X9Xp [ #.#.#.#.#.#.#.o.: ) ) ) ) ) ) ) ) ) V ) ) ) ) ) ) ) ) ) + i.i.i.i.i.i.i.i.9.#.#.#.#.#.#.#.#.#.$ D ) ) ) ) ) ) ) H 5 9X9X",
"9X9X/ z.L.L.L.L.L.L.L.L.L.L.L.L.L.L.L.L.L.H.z g.g.g.g.g.g.g.g.g.:.%.%.%.%.%.%.%.%.W ,.L.L.L.L.L.L.L.L.L.L.L.L.L.L.L.L.L.z./ 9X9X",
"9X9Xi OX6X6X6X6X6X6X6X6X6X6X6X6X6X6X6X6X6X:X2 (.(.(.(.(.(.(.(.(.(.(.(.(.(.(.(.(.(.y.d.6X6X6X6X6X6X6X6X6X6X6X6X6X6X6X6X6XOXi 9X9X",
"9X9Xu .X3X3X3X3X3X3X3X3X3X3X3X3X3X3X3X3X3X=X, !.!.!.!.!.!.!.!.!.!.!.!.!.!.!.!.!.!.e.s.3X3X3X3X3X3X3X3X3X3X3X3X3X3X3X3X3X.Xu 9X9X",
"9X9Xu .X3X3X3X3X3X3X3X3X3X3X3X3X3X3X3X3X3X=X, !.!.!.!.!.!.!.!.!.!.!.!.!.!.!.!.!.!.e.s.3X3X3X3X3X3X3X3X3X3X3X3X3X3X3X3X3X.Xu 9X9X",
"9X9Xu .X3X3X3X3X3X3X3X3X3X3X3X3X3X3X3X3X3X=X, !.!.!.!.!.!.!.!.!.!.!.!.!.!.!.!.!.!.e.s.3X3X3X3X3X3X3X3X3X3X3X3X3X3X3X3X3X.Xu 9X9X",
"9X9Xu .X3X3X3X3X3X3X3X3X3X3X3X3X3X3X3X3X3X=X, !.!.!.!.!.!.!.!.!.!.!.!.!.!.!.!.!.!.e.s.3X3X3X3X3X3X3X3X3X3X3X3X3X3X3X3X3X.Xu 9X9X",
"9X9Xu .X3X3X3X3X3X3X3X3X3X3X3X3X3X3X3X3X3X=X, !.!.!.!.!.!.!.!.!.!.!.!.!.!.!.!.!.!.e.s.3X3X3X3X3X3X3X3X3X3X3X3X3X3X3X3X3X.Xu 9X9X",
"9X9Xu .X3X3X3X3X3X3X3X3X3X3X3X3X3X3X3X3X3X=X, !.!.!.!.!.!.!.!.!.!.!.!.!.!.!.!.!.!.e.s.3X3X3X3X3X3X3X3X3X3X3X3X3X3X3X3X3X.Xu 9X9X",
"9X9Xu .X3X3X3X3X3X3X3X3X3X3X3X3X3X3X3X3X3X=X, !.!.!.!.!.!.!.!.!.!.!.!.!.!.!.!.!.!.e.s.3X3X3X3X3X3X3X3X3X3X3X3X3X3X3X3X3X.Xu 9X9X",
"9X9Xd {.,X,X,X,X,X,X,X,X,X,X,X,X,X,X,X,X,X*X2 E.E.E.E.E.E.E.E.E.E.E.E.E.E.E.E.E.E.w.a.,X,X,X,X,X,X,X,X,X,X,X,X,X,X,X,X,X{.d 9X9X",
"9X9Xh O.&.&.&.&.&.&.&.&.2.p.p.p.p.p.p.p.p.t.q ] ] ] ] ] ] ] ] ] J [ [ [ [ [ [ [ [ S I &.&.&.&.&.&.&.&.*.u.p.p.p.p.p.p.p.6.F 9X9X",
"9X9X( B.Y.Y.Y.Y.Y.Y.Y.L.G 3.3.3.3.3.3.3.3.3.8.m.m.m.m.m.m.m.m.m.% Y.Y.Y.Y.Y.Y.Y.Y.Y.Y.Y.Y.Y.Y.Y.Y.Y.Y.M %.3.3.3.3.3.3.3.=.u 9X9X",
"9X9Xa oX5X5X5X5X5X5X5X%Xw /././././././././././././././././././.& 5X5X5X5X5X5X5X5X5X5X5X5X5X5X5X5X5X5XL Z./././././././.S.6 9X9X",
"9X9Xu .X3X3X3X3X3X3X3X$X9 !.!.!.!.!.!.!.!.!.!.!.!.!.!.!.!.!.!.!.& 3X3X3X3X3X3X3X3X3X3X3X3X3X3X3X3X3X3XJ n.!.!.!.!.!.!.!.C.3 9X9X",
"9X9Xu .X3X3X3X3X3X3X3X$X9 !.!.!.!.!.!.!.!.!.!.!.!.!.!.!.!.!.!.!.& 3X3X3X3X3X3X3X3X3X3X3X3X3X3X3X3X3X3XJ n.!.!.!.!.!.!.!.C.3 9X9X",
"9X9Xu .X3X3X3X3X3X3X3X$X9 !.!.!.!.!.!.!.!.!.!.!.!.!.!.!.!.!.!.!.& 3X3X3X3X3X3X3X3X3X3X3X3X3X3X3X3X3X3XJ n.!.!.!.!.!.!.!.C.3 9X9X",
"9X9Xu .X3X3X3X3X3X3X3X$X9 !.!.!.!.!.!.!.!.!.!.!.!.!.!.!.!.!.!.!.& 3X3X3X3X3X3X3X3X3X3X3X3X3X3X3X3X3X3XJ n.!.!.!.!.!.!.!.C.3 9X9X",
"9X9Xu .X3X3X3X3X3X3X3X$X9 !.!.!.!.!.!.!.!.!.!.!.!.!.!.!.!.!.!.!.& 3X3X3X3X3X3X3X3X3X3X3X3X3X3X3X3X3X3XJ n.!.!.!.!.!.!.!.C.3 9X9X",
"9X9Xu .X3X3X3X3X3X3X3X$X9 !.!.!.!.!.!.!.!.!.!.!.!.!.!.!.!.!.!.!.& 3X3X3X3X3X3X3X3X3X3X3X3X3X3X3X3X3X3XJ n.!.!.!.!.!.!.!.C.3 9X9X",
"9X9Xu .X3X3X3X3X3X3X3X$X9 !.!.!.!.!.!.!.!.!.!.!.!.!.!.!.!.!.!.!.& 3X3X3X3X3X3X3X3X3X3X3X3X3X3X3X3X3X3XJ n.!.!.!.!.!.!.!.C.3 9X9X",
"9X9Xd ].>X>X>X>X>X>X>X@Xe R.R.R.R.R.R.R.R.R.R.R.R.R.R.R.R.R.R.R.* >X>X>X>X>X>X>X>X>X>X>X>X>X>X>X>X>X>XL c.R.R.R.R.R.R.R.b.5 9X9X",
"9X9Xj { +.+.+.+.+.+.+.} f _ _ _ _ _ _ _ _ _ N ! ! ! ! ! ! ! ! ! ; | | | | | | | | ' T +.+.+.+.+.+.+.+.t U _ _ _ _ _ _ _ T 0 9X9X",
"9X9X( B.Y.Y.Y.Y.Y.Y.Y.Y.Y.Y.Y.Y.Y.Y.Y.Y.Y.P.z m.m.m.m.m.m.m.m.m.m.m.m.m.m.m.m.m.m.3.4.Y.Y.Y.Y.Y.Y.Y.Y.Y.Y.Y.Y.Y.Y.Y.Y.Y.B.( 9X9X",
"9X9Xu XX4X4X4X4X4X4X4X4X4X4X4X4X4X4X4X4X4X;X, ^.^.^.^.^.^.^.^.^.^.^.^.^.^.^.^.^.^.e.s.4X4X4X4X4X4X4X4X4X4X4X4X4X4X4X4X4XXXu 9X9X",
"9X9Xu .X3X3X3X3X3X3X3X3X3X3X3X3X3X3X3X3X3X=X, !.!.!.!.!.!.!.!.!.!.!.!.!.!.!.!.!.!.e.s.3X3X3X3X3X3X3X3X3X3X3X3X3X3X3X3X3X.Xu 9X9X",
"9X9Xu .X3X3X3X3X3X3X3X3X3X3X3X3X3X3X3X3X3X=X, !.!.!.!.!.!.!.!.!.!.!.!.!.!.!.!.!.!.e.s.3X3X3X3X3X3X3X3X3X3X3X3X3X3X3X3X3X.Xu 9X9X",
"9X9Xu .X3X3X3X3X3X3X3X3X3X3X3X3X3X3X3X3X3X=X, !.!.!.!.!.!.!.!.!.!.!.!.!.!.!.!.!.!.e.s.3X3X3X3X3X3X3X3X3X3X3X3X3X3X3X3X3X.Xu 9X9X",
"9X9Xu .X3X3X3X3X3X3X3X3X3X3X3X3X3X3X3X3X3X=X, !.!.!.!.!.!.!.!.!.!.!.!.!.!.!.!.!.!.e.s.3X3X3X3X3X3X3X3X3X3X3X3X3X3X3X3X3X.Xu 9X9X",
"9X9XH A.~.~.~.~.~.~.~.~.~.~.~.~.~.~.~.~.~.I.8 h.h.h.h.h.h.h.h.h.h.h.h.h.h.h.h.h.h.;.5.~.~.~.~.~.~.~.~.~.~.~.~.~.~.~.~.~.A.H 9X9X",
"9X9XC Z Z Z Z Z Z Z Z Z Z Z Z Z Z Z Z Z Z Z x y y y y y y y y y y y y y y y y y y 4 m Z Z Z Z Z Z Z Z Z Z Z Z Z Z Z Z Z Z C 9X9X",
"9X9X9X9X9X9X9X9X9X9X9X9X9X9X9X9X9X9X9X9X9X9X9X9X9X9X9X9X9X9X9X9X9X9X9X9X9X9X9X9X9X9X9X9X9X9X9X9X9X9X9X9X9X9X9X9X9X9X9X9X9X9X9X9X",
"9X9X9X9X9X9X9X9X9X9X9X9X9X9X9X9X9X9X9X9X9X9X9X9X9X9X9X9X9X9X9X9X9X9X9X9X9X9X9X9X9X9X9X9X9X9X9X9X9X9X9X9X9X9X9X9X9X9X9X9X9X9X9X9X"
};
