/* XPM */
static char *_ad5cc646029423cc0243200fbd67a5eXZLZ1HjIWU7XMKbf[] = {
/* columns rows colors chars-per-pixel */
"64 64 76 1 ",
"  c None",
". c #4C241D",
"X c #4C251D",
"o c #4D241E",
"O c #4D251E",
"+ c #4E251E",
"@ c #4F251E",
"# c #4D261F",
"$ c #4E261F",
"% c #4E2620",
"& c #4F2621",
"* c #542A22",
"= c #572D24",
"- c #573129",
"; c #59322C",
": c #63362C",
"> c #613D37",
", c #63403A",
"< c #65413A",
"1 c #79473B",
"2 c #7D4B3D",
"3 c #694942",
"4 c #6D4C45",
"5 c #70504A",
"6 c #72514B",
"7 c #824E40",
"8 c #834F40",
"9 c #835041",
"0 c #865142",
"q c #885344",
"w c #975F4E",
"e c #A26655",
"r c #A66A57",
"t c #A86C59",
"y c #B0725E",
"u c #896F6A",
"i c #937770",
"p c #967C76",
"a c #B37661",
"s c #B87863",
"d c #BE7D67",
"f c #BF7E68",
"g c #A28983",
"h c #A08B86",
"j c #A58D87",
"k c #A9928C",
"l c #AB9996",
"z c #B19B95",
"x c #B5A09A",
"c c #B6A09A",
"v c #BAA6A0",
"b c #BCA8A1",
"n c #BEB0AD",
"m c #C2AEA9",
"M c #C5B0AC",
"N c #CBB9B3",
"B c #D8C7C2",
"V c #E5D8D2",
"C c #EFE3DD",
"Z c #F2E7E2",
"A c #F4EAE4",
"S c #F5EAE5",
"D c #FAEFEA",
"F c #FBF1ED",
"G c #FBF2EC",
"H c #FBF2ED",
"J c #FBF3ED",
"K c #FCF1EC",
"L c #FCF1ED",
"P c #FCF2ED",
"I c #FDF2ED",
"U c #FCF3ED",
"Y c #FCF2EE",
"T c #FCF3EE",
"R c #FDF3EE",
"E c white",
/* pixels */
"                                                                ",
"                                                                ",
"                                                                ",
"                                                                ",
"                                                                ",
"                                                                ",
"                                                                ",
"                                                                ",
"                                  PRPPPPPR                      ",
"                               PPPPPPPPPPPPPP                   ",
"                             PPPPPPPPPPPPPPPPPP                 ",
"                          4gkkkkkkkkkkkkkkkkkkzSP   .           ",
"                 ..............................mPR              ",
"                 .qttttttttttttttttttttttttttq.bPPP             ",
"                 .w9************************9w.bPPPP            ",
"                 .w:.::::::::::::::::::::::@:w.bPPPPP           ",
"                 .w:=ffffffffffffffffffffff=:w.bPPPPPP          ",
"                 .w:=ffffffffffffffffffffff=:w.bPPPPJRP         ",
"                 .w:=ffffffffffffffffffffff=:w.bPPPKARZ         ",
"                 .w:=ffffffffffffffffffffff=:w.bPPPi;p.M        ",
"                 .w:=ffffffffffffffffffffff=:w.bPPRN&.,C        ",
"                 .w:=ffffffffffffffffffffff=:w.bPPRz..;VJ       ",
"                 .w:=ffffffffffffffffffffff=:w.bPPPj6c<BP       ",
"                 .w:=ffffffffffffffffffffff=:w.bPPPPRPRRP       ",
"                 .w:=ffffffffffffffffffffff=:w.bPPPPPPPPP       ",
"                 .w:=ffffffffffffffffffffff=:w.bPPPPPPPPP       ",
"                 .w:=ffffffffffffffffffffff=:w.bPPPPPPPPPJ      ",
"                 .w:=ffffffffffffffffffffff=:w.bPPPPPPPPPP      ",
"                 .w:=ffffffffffffffffffffff=:w.bPPPPPPPPPJ      ",
"                 .w:=ffffffffffffffffffffff=:w.bPPPPPPPPPJ      ",
"                 .w:=ffffffffffffffffffffff=:w.bPPPPPPPPP       ",
"                 .w:=ffffffffffffffffffffff=:w.bPPPPPPPPP       ",
"                 ow:=fffffffffffffffdyyyaff=:w.bPPPPPPPPP       ",
"                 ow:=fffffffffffffff1....ef=:w.bPPPPPPPPP       ",
"                 .w:=fffffffffffffffr7779sf=:w.bPPPPPPPP        ",
"                 .w:=ffffffffffffffffffffff=:w.bPPPPPPPP        ",
"                 .w:=ffffffffffffffffffffff=:w.bPPPPPPPP        ",
"                 .w:=ffffffffffffffffffffff=:w.bPPPPPPP         ",
"                 .w:=ffffffffffffffffffffff=:w.bPPPPPP          ",
"                 .w:=ffffffffffffffffffffff=:w.bPPPPPP          ",
"                 .w:=ffffffffffffffffffffff=:w.bPPPPP           ",
"                 .w:=ffffffffffffffffffffff=:w.bPPPP            ",
"                 .w:=ffffffffffffffffffffff=:w.bPPP             ",
"                 .w:=ffffffffffffffffffffff=:w.bPP              ",
"                 .w:=ffffffffffffffffffffff=:w.x                ",
"                 .w:=ffffffffffffffffffffff=:w.                 ",
"                 .w:=ffffffffffffffffffffff=:w.                 ",
"                 .w:=ffffffffffffffffffffff=:w.                 ",
"                 .w:=ffffffffffffffffffffff=:w.                 ",
"                 .w:=ffffffffffffffffffffff=:w.                 ",
"                 .w:=ffffffffffffffffffffff=:w.                 ",
"       ...........9:=ffffffffffffffffffffff=:9...........       ",
"       hllllllllu.2:=ffffffffffffffffffffff=:2.ullllllllh       ",
"       EEEEEEEEEn.2:=ffffffffffffffffffffff=:2.nEEEEEEEEE       ",
"       355655665<.2:@::::::::::::::::::::::&:2.<665656563       ",
"       ...%....... &oo%..%ooooooooooo@..&...& ...........       ",
"                                                                ",
"                                                                ",
"                                                                ",
"                                                                ",
"                                                                ",
"                                                                ",
"                                                                ",
"                                                                "
};
