/* XPM */
static char *e894622c29814c2f88bdb1e7d3574c7fWtzLlBex8tSxovMJ[] = {
/* columns rows colors chars-per-pixel */
"64 64 130 2 ",
"   c None",
".  c #4C231C",
"X  c #4D231D",
"o  c #4C241C",
"O  c #4C241D",
"+  c #4D241D",
"@  c #4C241E",
"#  c #4C251E",
"$  c #4D251E",
"%  c #4E251F",
"&  c #4E261E",
"*  c #4F261E",
"=  c #4F2620",
"-  c #4F2822",
";  c #502720",
":  c #502820",
">  c #512820",
",  c #522920",
"<  c #532A21",
"1  c #512922",
"2  c #502923",
"3  c #512A23",
"4  c #522B23",
"5  c #552B23",
"6  c #562C23",
"7  c #542B25",
"8  c #582C24",
"9  c #582E24",
"0  c #582E25",
"q  c #5A3026",
"w  c #5B3027",
"e  c #57302A",
"r  c #5E3228",
"t  c #5A342E",
"y  c #61342B",
"u  c #63362C",
"i  c #64372D",
"p  c #68392F",
"a  c #693C30",
"s  c #6B3C31",
"d  c #6E3E33",
"f  c #6E3F33",
"g  c #6F4034",
"h  c #63403A",
"j  c #68443E",
"k  c #744338",
"l  c #7A483B",
"z  c #7B493B",
"x  c #7B493C",
"c  c #7C4A3D",
"v  c #7D4B3D",
"b  c #7F4C3E",
"n  c #6B4A45",
"m  c #70504A",
"M  c #654750",
"N  c #674954",
"B  c #694C57",
"V  c #6B4F5B",
"C  c #775650",
"Z  c #775751",
"A  c #824E40",
"S  c #824F41",
"D  c #855143",
"F  c #865142",
"G  c #8B5546",
"H  c #925B4A",
"J  c #945C4C",
"K  c #975F4E",
"L  c #985F4F",
"P  c #805353",
"I  c #83655E",
"U  c #8E615F",
"Y  c #9A6150",
"T  c #9C6352",
"R  c #9D6352",
"E  c #9E6453",
"W  c #9F6553",
"Q  c #A46857",
"!  c #AB6D5A",
"~  c #AC705C",
"^  c #B0735F",
"/  c #816560",
"(  c #856660",
")  c #8F726C",
"_  c #957A74",
"`  c #957E7A",
"'  c #B37560",
"]  c #B77862",
"[  c #BB7A65",
"{  c #BE7D67",
"}  c #BF7E68",
"|  c #A08A86",
" . c #A9918B",
".. c #B39C96",
"X. c #B39D98",
"o. c #BCA7A1",
"O. c #BCA8A1",
"+. c #BEB0AD",
"@. c #C5B3AE",
"#. c #CAB7B1",
"$. c #CCBAB5",
"%. c #CEBBB7",
"&. c #D0BFBA",
"*. c #D1BFBB",
"=. c #D2C1BB",
"-. c #D5C5BF",
";. c #D8C8C3",
":. c #D9C9C4",
">. c #DECEC9",
",. c #E0D2CD",
"<. c #E2D4CF",
"1. c #E8DAD5",
"2. c #F2E7E2",
"3. c #F4E9E3",
"4. c #FBF0EB",
"5. c #FBF2EC",
"6. c #FBF2ED",
"7. c #FBF1EE",
"8. c #FBF2EE",
"9. c #FCF1EC",
"0. c #FDF1EC",
"q. c #FCF2EC",
"w. c #FCF3EC",
"e. c #FCF2ED",
"r. c #FDF2ED",
"t. c #FCF1EE",
"y. c #FCF2EE",
"u. c #FCF3EE",
"i. c #FDF3EE",
"p. c white",
/* pixels */
"                                                                                                                                ",
"                                                                                                                                ",
"                                                                                                                                ",
"                                                                                                                                ",
"                                                                                                                                ",
"                                                                                                                                ",
"                                                                        4.4.y.6.                                                ",
"                                                                i.i.4.y.y.y.y.y.y.y.y.y.                                        ",
"                                                          y.y.y.y.4.i.i.i.y.4.i.i.i.i.4.y.y.y.                                  ",
"                                                      @.;.:.;.&.X._ Z t 8 =.:.:.;.;.:.;.:.:.<.y.y.      O                       ",
"                                  O o . O O O . O O O O O O O O o o o , * X X X O O O O O O O %.y.4.    O                       ",
"                                  o g A A A x f u w O O O O 8 f D T ] z X z A m A A A F A g O O.y.y.y.                          ",
"                                  O K D w O O O O , p D Y ' } } } } } x o k x l z z x z T K O O.y.i.4.i.                        ",
"                                  O K > o i v J ~ { { { } } } } } } } x o o o . o o O O u K O O.4.i.4.i.y.                      ",
"                                  O K , 6 } } } } } } } } } } } } } } x o M B B B B B - u K O O.6.w.i.i.y.4.                    ",
"                                  o K , 6 } } } } } } } } } } } } } } x = N V V V V V - u K O O.y.i.i.4.y.y.y.                  ",
"                                  O K > 6 } } } } } } } } } } } } } } x o N V V V V V - u K O O.4.4.i.i.6.y.y.                  ",
"                                  O K > 6 } } } } } } } } } } } } } } x = N V V V V V 3 u K O O.i.y.w...( $.Z =.                ",
"                                  O K > 6 } } } } } } } } } } } } } } l . N V V V V V - u K O O.y.i.6. .O > > >.                ",
"                                  O K > 6 } } } } } } } } } } } } } } l . N V V V V V > u K O O.4.4.y.-.> O j 2.                ",
"                                  O K > 6 } } } } } } } } } } } } } } x . N V V V V V 3 u K O O.i.i.y.) 4 I . #.y.              ",
"                                  O K > 6 } } } } } } } } } } } } } } x . N V V V V V - u K O O.6.w.6.2.1.4.,.w.y.              ",
"                                  O K > 6 } } } } } } } } } } } } } } x = N V V V V V 3 i K = O.y.y.4.w.i.i.i.y.y.              ",
"                                  O K > 6 } } } } } } } } } } } } } } x . B V V V V V - t K . O.4.i.i.i.y.4.w.6.y.              ",
"                                  O K > 6 } } } } } } } } } } } } } } x = N V V V V V 3 i Y o O.w.i.y.i.y.6.i.4.y.6.            ",
"                                  O K > 6 } } } } } } } } } } } } } } x @ N V V V V V - u K o O.6.i.4.4.4.w.i.y.y.y.            ",
"                                  O K > 6 } } } } } } } } } } } } } } x @ N V V V V V 3 u K o O.y.4.6.y.i.y.4.i.y.i.            ",
"                                  O K > 6 } } } } } } } } } } } } } } x @ N V V V V V - u K o O.y.i.w.i.i.4.y.6.4.y.            ",
"                                  O K > 6 } } } } } } } } } } } } } } x @ N V V V V V 3 u K O O.4.w.6.y.i.y.4.w.y.              ",
"                                  O K > 6 } } } } } } } } } } } } } } x @ M V V V V V - u K O O.i.i.i.4.4.y.i.i.y.              ",
"                                  O K > 6 } } } } } } } } } } } } } } x o N V V V V V 3 u K O O.y.6.y.4.w.6.y.y.y.              ",
"                                  O K > 6 } } } } } } } } E r w w t E l o N V V V V V > u K O O.4.w.i.i.i.i.4.y.i.              ",
"                                  o J , 8 } } } } } } } { W y r w r E x O N V V V V V - u Y o O.6.6.6.6.4.i.y.i.                ",
"                                  o K , 8 } } } } } } } { { { } } } } x O N V V V V V 3 u K o O.6.6.y.y.y.6.4.i.                ",
"                                  O K , 6 { } } } } } } } } } } } } } x O N V V V V V - u K o o.y.4.y.y.i.w.6.i.                ",
"                                  O K , 8 { } } } } } } } } } } } } } x O N V V V V V 3 u K = o.y.y.y.y.i.4.y.                  ",
"                                  O K > 8 { { } } } } } } } } } } } } x O N V V V V V - u K O O.4.i.i.w.6.y.y.                  ",
"                                  O K > 8 { } } } } } } } } } } } } } x O N V V V V V 3 u K O O.4.i.i.4.i.4.                    ",
"                                  O K > 8 { } } } } } } } } } } } } } x O N V V V V V - u K O O.i.6.y.y.y.                      ",
"                                  O K > 8 } } } } } } } } } } } } } } x O N V V V V V > u K O O.i.w.4.i.                        ",
"                                  O K > 6 } } } } } } } } } } } } } } x O N V V V V V > u K O O.y.y.y.                          ",
"                                  O K > 6 } } } } } } } } } } } } } } x O N V V V V V - u K O O.4.y.                            ",
"                                  O K > 6 } } } } } } } } } } } } } } x O N V V V V V 3 u K O O.i.                              ",
"                                  O K > 6 } } } } } } } } } } } } } } x O N V V V V V - u L O                                   ",
"                                  O K > 6 } } } } } } } } } } } } } } x O N V V V V V - i Y O                                   ",
"                                  O K > 6 } } } } } } } } } } } } } } x O N V V V V V 3 t Y O                                   ",
"                                  O K > 6 } } } } } } } } } } } } } } x O N V V V V V - i K O                                   ",
"                                  O K > 6 } } } } } } } } } } } } } } x O N V V V V V 3 u K O                                   ",
"                                  = J - 6 } } } } } } } } } } } } } } l O N V V V V V - i K O                                   ",
"              O O O O O O = O O = = G - 6 } } } } } } } } } } } } } } l O N V V V V V 3 i G O O O O O & O O O = O               ",
"              n m m m m m m m m a = v > 6 } } } } } } } } } } } } } } v O N V V V V V - u v O h m m m m m m m m n               ",
"              p.p.p.p.p.p.p.p.p.@.O v > 6 } } } } } } } } } } } } } } v O N V V V V V > u v O +.p.p.p.p.p.p.p.p.p.              ",
"              ` | | | | | | | | / O v > < Q [ } } } } } } } } } } } } v O N V V V V V 7 u v O / | | | | | | | | `               ",
"              O O O O O O O O O O O d ; . . ; y z H ! } } } } } } } } l O P U U ( U U 7 w f O O O O O O O O O O O               ",
"                                          . O % . o o = p m L ^ } } } l O                                                       ",
"                                                    . o o o X X 7 d F s O                                                       ",
"                                                              O . . O O O                                                       ",
"                                                                                                                                ",
"                                                                                                                                ",
"                                                                                                                                ",
"                                                                                                                                ",
"                                                                                                                                ",
"                                                                                                                                ",
"                                                                                                                                "
};
