/* XPM */
static char *_ed3b0c4f46d4674e2f307093e216fe5aLFcMNA9sCskvl9T[] = {
/* columns rows colors chars-per-pixel */
"64 64 143 2 ",
"   c None",
".  c #2C2F37",
"X  c #2C2F38",
"o  c #2D3037",
"O  c #2D3139",
"+  c #33353C",
"@  c #39393F",
"#  c #3D3C42",
"$  c #3E434A",
"%  c #454346",
"&  c #4B4749",
"*  c #4C4B4D",
"=  c #474D54",
"-  c #494F55",
";  c #4F5152",
":  c #4C535A",
">  c #565A5C",
",  c #595756",
"<  c #605955",
"1  c #665E59",
"2  c #67605A",
"3  c #6D645D",
"4  c #70665E",
"5  c #786D63",
"6  c #7C7064",
"7  c #BF3B2C",
"8  c #C03A2B",
"9  c #BD4235",
"0  c #BB4638",
"q  c #BA4C3F",
"w  c #B74D41",
"e  c #BB5347",
"r  c #BC5E5B",
"t  c #BD685A",
"y  c #8D7C6E",
"u  c #A06F69",
"i  c #CC4B4C",
"p  c #C25E4E",
"a  c #C85556",
"s  c #C35B5C",
"d  c #C16355",
"f  c #FB7B76",
"g  c #988575",
"h  c #A6917D",
"j  c #C98F7B",
"k  c #C68B79",
"l  c #FC877D",
"z  c #737E82",
"x  c #7F8C8D",
"c  c #898584",
"v  c #828B8C",
"b  c #87908F",
"n  c #828F90",
"m  c #849293",
"M  c #879699",
"N  c #8A9999",
"B  c #9B9C94",
"V  c #AC9680",
"C  c #B19A82",
"Z  c #96A09B",
"A  c #9CA59E",
"S  c #BDA388",
"D  c #8F9FA3",
"F  c #95A5A5",
"G  c #9AA6A2",
"H  c #9BA8A6",
"J  c #96A7A8",
"K  c #97A9AB",
"L  c #98AAAE",
"P  c #9AACB1",
"I  c #9BB0B6",
"U  c #9DB2BB",
"Y  c #A3ACA5",
"T  c #AAAFA5",
"R  c #AEB1A7",
"E  c #B3B4A7",
"W  c #B9B6A7",
"Q  c #B9B6A8",
"!  c #C88C83",
"~  c #CD998C",
"^  c #FC8C80",
"/  c #FC9C8A",
"(  c #FC9183",
")  c #C7AB8F",
"_  c #CBAF91",
"`  c #D3AC9B",
"'  c #CBB292",
"]  c #D4B797",
"[  c #D3B897",
"{  c #D5B49D",
"}  c #D7BA98",
"|  c #DCBD9A",
" . c #FCAD94",
".. c #FDB599",
"X. c #CDBDA5",
"o. c #C3BCA9",
"O. c #C8BDA8",
"+. c #D2BEA2",
"@. c #E2C29E",
"#. c #D6C4AA",
"$. c #D9C5AB",
"%. c #DEC8AB",
"&. c #C5C6B3",
"*. c #C6CAB5",
"=. c #DFD3B7",
"-. c #DFD4B9",
";. c #DCDBBF",
":. c #E4C5A1",
">. c #E9C7A2",
",. c #ECCAA4",
"<. c #E5CBAB",
"1. c #EACEAC",
"2. c #FCC6A3",
"3. c #F2CFA6",
"4. c #FCCAA5",
"5. c #EFD0AC",
"6. c #F5D2AB",
"7. c #FDD7AD",
"8. c #FDD8AD",
"9. c #E4D4B4",
"0. c #EBD4B2",
"q. c #E6DFBF",
"w. c #ECDEBE",
"e. c #EEE1BF",
"r. c #A0B7C2",
"t. c #A1BAC7",
"y. c #A3BDCC",
"u. c #A5BFD0",
"i. c #A4C0D0",
"p. c #A8C5D9",
"a. c #ABCCE4",
"s. c #ACCDE5",
"d. c #AACAE1",
"f. c #AECEE8",
"g. c #AFD1EC",
"h. c #B0D2EF",
"j. c #B0D3F0",
"k. c #DEDEC1",
"l. c #E7E4C4",
"z. c #EBE3C3",
"x. c #EEE9C7",
"c. c #F5EFCA",
"v. c #F5EFCA",
/* pixels */
"                                                              X X X X X X                                                       ",
"                                                          X X X X X X X X X X X                                                 ",
"                                        X X X X X X . X X X X X X X X X X X X X X .                                             ",
"                                    X X X X X X X X X X X X X X X X X X X X X X X X X                                           ",
"                                X X X X X X X X X X X X X X X X X X X X X X X X X X X X                                         ",
"                                X X . X X X X X X X X X X X X X X X X X X X X X X X X X X                                       ",
"                                    X X X X X X X X X X X X X X X X X X X X X X X X X X X O                                     ",
"                                  X X X X X X X X X X X X X X X X X X X X X X X X X X X X X                                     ",
"                                X X X X X X X X X X X X X X X X X X X X X X X X X X X X X X X                                   ",
"                              . X X X X X X X X X X X X X X X X X X X X X X X X X X X X X X X                                   ",
"                              X X X X X X X X X X X X X X X X X X X X X X X X X X X X X X X X X                                 ",
"                              X X X X X X X X X X X X X X X X X X X X X X X X X X X X X X X X X                                 ",
"                            O X X X X X X X X X X X X 1 y g 2 + X X X X X X X X X X X X X X X X                                 ",
"                            X X X X X X X X X X X 5 :.7.8.7.8.} & X X X X X X X X h _ @ X X X X                                 ",
"                            X X X X X X X X X O C 7.7.7.7.7.7.7.>.% X X X X X X X @.7.S X X X X                                 ",
"                            . X X X X X X X X V 7.7.2.^ ..7.7.7.7.' + . X X X X 5 7.7.7.< X X X                                 ",
"                            X X X X @ . . . 3 7.7.7. .f ( 7.7.7.7.7.6 X . . X & ,.7.7.7.V X X X                                 ",
"                            . X X O | , . . } 7.7.7...f f l  .7.7.7.:.X . . # } 7.7.7.7._ X X X                                 ",
"                              X X # 7.6.g 4 7.7.7.7.7./ f f f 2.7.7.7.1 . & | 7.7.7.7.7.>.X X X                                 ",
"                              X X # 7.7.7.7.7.7.7.7.7.7.4.f f 2.7.7.7.) 4 ,.7.7.7.7.7.7.7.X X X                                 ",
"                              X X % 7.7.7.$.Q T R o.1.7.4.f f 4.7.7.7.7.<.o.R T Q $.7.7.7.+ X                                   ",
"                              X X # 7.1.Y F F F F F F Q 6.l / 7.7.7.6.Q F F F F J F Y 1.7.X X                                   ",
"                                X X 1.H F J r.u.y.U F F R 7.7.7.7.7.R F F U u.u.r.J J H :.X                                     ",
"                                X X Y F P s.j.j.j.j.p.J F O.7.7.7.o.F J p.j.j.j.j.a.P F Y +                                     ",
"                                  : J F s.j.j.j.j.j.j.i.F H +.X.+.G H u.j.j.j.j.j.j.a.F F                                       ",
"                                  z F r.j.j.j.j.j.j.j.h.D x x x x n D g.j.j.j.j.j.j.j.U F F                                     ",
"                                  F F y.j.j.j.j.j.j.j.j.M x n B n n M j.j.j.j.j.j.j.j.y.F F                                     ",
"                                  F F t.j.j.j.j.j.j.j.j.F m X.7.X.n D j.j.j.j.j.j.j.j.t.F F                                     ",
"                                    F P j.j.j.j.j.j.j.s.F F 6.7.1.F F a.j.j.j.j.j.j.j.P F                                       ",
"                                    F F i.j.j.h.j.j.g.U F R 7.7.7.T F U j.j.j.j.j.j.y.F F                                       ",
"                                    F F F y.h.h.j.s.U F F <.7.8.7.<.F F P d.j.j.f.t.F F H                                       ",
"                                      R F F F L L F F H $.7.7.7.7.7.$.F F F L L F F F R                                         ",
"                                        #.Y F F F J R 1.7.7.7.7.7.8.8.1.R J F F F Y $.                                          ",
"                                        7.7.1.%.<.6.8.7.7.8.7.7.7.7.7.7.7.6.<.%.1.7.7.                                          ",
"                                          7.7.7.7.7.7.7.7.7.8.7.7.7.8.7.7.7.7.7.7.7.                                            ",
"                                            8.8.7.7.7.7.7.8.7.7.7.7.7.7.7.7.7.7.8.                                              ",
"                                              8.7.7.7.7.7.7.8.7.7.8.7.7.7.7.7.7.                                                ",
"                                                7.7.7.7.7.7.7.7.7.7.7.7.7.7.3.                                                  ",
"                                                ' @.6.7.8.7.7.7.7.7.8.8.6.| '                                                   ",
"                                                ' ' ' } :.,.6.6.6.3.:.} ' ' '                                                   ",
"                                                >._ ' ' ' ' ' ' ' ' ' ' ' ' :.                                                  ",
"                                                7.7.>.[ ' ' ' ' ' ' ' [ :.7.7.                                                  ",
"                                                7.7.7.7.7.,.>.:.>.3.6.7.7.7.8.                                                  ",
"                                                7.7.7.7.7.7.7.7.7.7.7.7.7.7.7.                                                  ",
"                                          X X > q.9.9.0.7.7.8.8.7.7.7.0.9.-.q., X X                                             ",
"                                  X X X X X + ; v.v.v.v.v.x.-.! =.x.v.v.v.v.v.* X X X X X X                                     ",
"                              + X X X X X X X ; v.v.v.v.v.+.a i a ` v.v.v.v.v.; X X X X X X X X                                 ",
"                            X X X X X X X X O > v.v.v.x.~ i i i i i ~ v.v.v.v.> X X X X X X X X X O                             ",
"                        . X X X X X X X X X X - l.c.c.c.z.s i i i s w.v.c.c.l.= X X X X X X X X X X X                           ",
"                      . X X X X X X X X X X X - *.c.c.c.c.d s i s e v.v.c.c.*.= X X X X X X X X X X X X                         ",
"                      X X X X X X X X X X X X - B v.c.c.x.7 9 r 7 7 w.v.c.c.Z = X X X X X X X X X X X X X                       ",
"                    X X X X X X X X . X X X X - x q.c.c.9.8 8 8 7 7 } v.v.k.x = X X X X X X X X X X X X X X                     ",
"                  X X X X X X X X X X X X X . = x Y c.c.{ 7 8 8 8 8 k v.v.Y x = X X X X X X X X X X X X X X                     ",
"                  X X X X X X X X X X X X X X : x x k.c.j 7 8 8 8 8 t v.k.x x = X X X X X X X X X X X X X X X                   ",
"                . X X X X X X X X X X X X X X = x x H c.p 8 8 8 8 8 w v.G v v = X X O X X X X X X X X X X X X X                 ",
"                X X . O X X X X X X X X X X O = x x v &.7 8 8 8 8 8 8 o.x x x = X X X X X X X X X X X X X X X X                 ",
"              O X X X X X X X X X X X X X X X = x x v v w 8 8 8 8 8 w v v x x = X X X X X X X X X X X X X X X X                 ",
"              X X X X X X X X X X X X X X X X = x x x x c 0 8 8 8 0 c x x x x = X X X X X X X X X X X X X X X X X               ",
"              X X X X X X X X X X X X X X X X $ N x x x v c w 8 w c x x x n M # X X X X X X X X X X X X X X X X X               ",
"              X X X X X X X X X X X X X X X X $ F m x x x x v u v v x x x m F $ X X X X X X X X X X X X X X X X X               ",
"              X X X X X X X X X X X X X X X X $ F F n x x x x x x x x x n F F # X X X X X X X X X X X X X X X X X               ",
"            X X X X X X X X X X X X X X X X X $ F F F m x x x x x x x m F F J $ X X X X X X X X X X X X X X X X X X             ",
"            o X X X X X X X X X X X X X X X X $ F F F F M x x x x x N J F F F $ X X X X X X X X X X X X X X X X X X             ",
"              X X X X X X X X X X X X X X X X $ F F F F F F N x M F F F F F K # X X X X X X X X X X X X X X X X X               "
};
