/* XPM */
static char *_e253b7f01e14ba2df38f82aed0233ebQAV8fxcNpM7v3vbZ[] = {
/* columns rows colors chars-per-pixel */
"64 64 127 2 ",
"   c None",
".  c #000000",
"X  c #0A0602",
"o  c #0D0903",
"O  c #130C04",
"+  c #1A0E05",
"@  c #1E1005",
"#  c #161309",
"$  c #231306",
"%  c #2A1707",
"&  c #251508",
"*  c #231D0E",
"=  c #2E1A09",
"-  c #331D0A",
";  c #3A1F0A",
":  c #3B220C",
">  c #272110",
",  c #2B2412",
"<  c #332B15",
"1  c #3C3319",
"2  c #42240B",
"3  c #43280E",
"4  c #4C2A0D",
"5  c #552E0F",
"6  c #57300F",
"7  c #4B2C10",
"8  c #41371B",
"9  c #443A1C",
"0  c #493E1E",
"q  c #553212",
"w  c #5C3513",
"e  c #613511",
"r  c #613914",
"t  c #6A3C15",
"y  c #723E14",
"u  c #6E4017",
"i  c #774114",
"p  c #794316",
"a  c #744519",
"s  c #79471A",
"d  c #7E4A1B",
"f  c #524622",
"g  c #564923",
"h  c #5C4E26",
"j  c #605127",
"k  c #6B5B2C",
"l  c #705F2E",
"z  c #776531",
"x  c #7A6732",
"c  c #824716",
"v  c #884B17",
"b  c #804B1B",
"n  c #8C4C18",
"m  c #904F19",
"M  c #8A511E",
"N  c #96521A",
"B  c #9B551A",
"V  c #A55A1D",
"C  c #AC5E1E",
"Z  c #AE601F",
"A  c #B3621F",
"S  c #955720",
"D  c #975820",
"F  c #9C5B21",
"G  c #A55E21",
"H  c #806C34",
"J  c #867137",
"K  c #897438",
"L  c #937D3C",
"P  c #A66124",
"I  c #AC6425",
"U  c #BA6620",
"Y  c #B66B27",
"T  c #BD6F28",
"R  c #BF7029",
"E  c #C56B22",
"W  c #CB6F23",
"Q  c #CE7124",
"!  c #C37229",
"~  c #CA762B",
"^  c #CE792C",
"/  c #D47425",
"(  c #D87625",
")  c #D77827",
"_  c #DB7927",
"`  c #D47B2C",
"'  c #DE7C29",
"]  c #E17E2A",
"[  c #97803E",
"{  c #99823F",
"}  c #DB812F",
"|  c #DF8230",
" . c #E4822D",
".. c #E9862F",
"X. c #E68631",
"o. c #EA8730",
"O. c #EE8C33",
"+. c #9B8440",
"@. c #A68C44",
"#. c #A98F45",
"$. c #AB9146",
"%. c #B29749",
"&. c #BA9E4D",
"*. c #C0A34F",
"=. c #C4A651",
"-. c #C9AB53",
";. c #CBAC53",
":. c #CBAC53",
">. c #D0B055",
",. c #D5B457",
"<. c #DEBC5B",
"1. c #E1BE5C",
"2. c #E2BF5C",
"3. c #E4C25E",
"4. c #EAC760",
"5. c #ECC861",
"6. c #EDC961",
"7. c #EECA62",
"8. c #F0CC62",
"9. c #F2CD63",
"0. c #F3CE64",
"q. c #F5D064",
"w. c #F7D165",
"e. c #F5D064",
"r. c #F8D266",
"t. c #F9D366",
"y. c #F9D366",
/* pixels */
"                                                              . .                                                               ",
"                                                            . . . .                                                   . . . .   ",
"                                                            . . f .                                                 . . @ = .   ",
"                                                            . O #.. .                                             . . % Q s . . ",
"                                                            . 0 2.. .                                           . . - Q F . .   ",
"                                                          . . @.y.8 . .                                       . . : / G . .     ",
"                                                        . . * 9.y.%.. .                                     . . 2 ) I X .       ",
"                                                      . . X -.y.y.y.l . . .                               . . 4 _ Y X .         ",
"                                                . . . . * =.t.t.y.y.y.J . . . . .                       . . 5 ' T X .           ",
"                                            . . . X 9 +.7.t.t.t.y.y.y.y.,.x , . . .                   . . e ' ! O . .           ",
"                                            . . h &.7.w.w.y.t.t.y.y.y.y.t.t.<.+., .                 . . t ' ~ O . .             ",
"                                              . . . X g =.y.t.t.y.y.y.y.L < . . . .               . . i ' ` @ . .               ",
"                                                  . . . . H y.t.y.y.2.1 . . . .                 . . c ] ` $ . .                 ",
"                                                      . . . +.w.y.0.1 . .                     . . n ] } & . .                   ",
"                                                          . X 2.y.K . .                   . . X N ] } = . .                     ",
"                                                          . . K y.> .                   . . X B ' X.- . .                       ",
"                                                            . < >.. .                 . . o G ] o.: . .                         ",
"                                            .               . X L . .               . . O C ] o.3 . .                           ",
"                                            . .             . . < .               . . + A ] O.7 . .                             ",
"                                            . .               . . .             . . $ A ] O.q . .                               ",
"                                            . .                 .             . . $ E ] O.w . .                                 ",
"                                                                            . . % E ] O.t . .                                   ",
"                                  . . . .       . . . .                   . . = W  .O.a . .                                     ",
"                                    . . .       . . . .                 . . ; Q  .O.d . .                                       ",
"                                            .                         . . 2 / ) O.M . .                                         ",
"                                            . .                     . . 4 / s . w . .                                           ",
"                                            . .                   . . 5 /  .I . . .                                             ",
"                                            . .                 . . e _  .O.O.G . .                                             ",
"                                                              . . t _  .O.O.O.` & . .                   .                       ",
"                                                            . . p /  .O.O.O.M X . .                   . . .                     ",
"                                                          . . c _  .O.O.^ : . . .                   . . g . .                   ",
"                                                  .     . . n _  .O.O.P X . .                       . . &.# .                   ",
"                                                . . . . . N / ..O.O.b . . .                         . . 5.0 .                   ",
"                                                . + . . y _ X.O.o.q . .                             . 1 w.L . .                 ",
"                                              . . A y . $ ..O.o.: . .                             . . L y.3.X .                 ",
"                                            . . 4 _ _ m G O.o.7 . .                             . . * 7.y.y.k . .               ",
"                                            . X A ( ( ..O.O.w . .                             . . X :.y.y.y.9.< . . .           ",
"                                          . . n _ _ ..O.O.t . .                       . . . . . * ;.y.y.y.y.t.7.h . . . . .     ",
"                                        . . 5 ( _ ..O.O.d . .                       . . . . 1 { 7.y.y.y.y.y.y.y.y.&.j O . . . . ",
"                                  . . . . ; / _ ..O.O.M . .                       . . f =.9.y.y.y.y.y.y.y.y.y.y.y.y.t.t.,.L . . ",
"                                . . . . : / _ o.O.O.F . .                           . . o 8 J 3.t.t.t.t.t.t.t.t.y.9.#.g * . . . ",
"                              . . 3 5 . O A O.O.O.P . .                               . . . . . k 9.t.t.t.t.t.t.$.# . . . . .   ",
"                            . . . 5 _ w . O ! O.Y X .                                       . . . < 4.t.t.t.t.z . . .           ",
"                          . . + O . e O.r . O B o .                                             . . f t.t.t.@.. .               ",
"                        . . + A I o . t O.r . . . .                                               . . %.t.9.# .                 ",
"                      . . o A _  .! o . ! O.r . .                                                 . . g t.$.. .                 ",
"                      . X C _ ] O.O.~ s X.| - . .                                                   . X w.h .                   ",
"                    . . V _ ] O.O.O.O.O.` & . .                                                     . . :.> .                   ",
"                  . . B _ ] O.O.O.O.O.! O . .                                                       . . K . .                   ",
"                . . n _ ( O.O.O.O.O.I o . .                                                           . . . .                   ",
"            . . . v _ _ O.O.O.O.O.F X . .                                                               . .                     ",
"          . . X B _ _ O.O.O.O.O.d . . .                                                                                         ",
"        . . O C _ ] O.O.O.O.O.s . .                                                                                             ",
"      . . @ A _ ] O.O.O.O.O.b . .                                                                                               ",
"    . . % E / ] O.O.O.O.O.M . .                                                                                                 ",
"  . . : Q _  .O.O.O.O.O.F . .                                                                                                   ",
". . 2 / / G O D O.O.O.G . .                                                                                                     ",
". . o I o.Y X . B O.I . .                                                                                                       ",
"  . . o T O.F X . a . . .                                                                                                       ",
"    . . o T O.F . . . .                                                                                                         ",
"      . . o T ` O . .                                                                                                           ",
"        . . o = . .                                                                                                             ",
"          . . . .                                                                                                               ",
"            . .                                                                                                                 "
};
